<?xml version="1.0" encoding="UTF-8" standalone="no"?>
<!DOCTYPE svg PUBLIC "-//W3C//DTD SVG 1.1//EN" "http://www.w3.org/Graphics/SVG/1.1/DTD/svg11.dtd">
<svg xmlns="http://www.w3.org/2000/svg" version="1.1" viewBox="0.00 0.00 515.00 425.00">
<g stroke-width="2.00" fill="none" stroke-linecap="butt">
<path stroke="#686450" vector-effect="non-scaling-stroke" d="
  M 116.35 131.79
  Q 118.64 128.64 120.70 125.34
  Q 123.09 121.50 125.07 118.91
  C 128.22 114.78 131.15 110.52 134.78 106.79
  Q 143.95 97.38 150.20 91.77
  Q 157.22 85.47 168.29 78.35
  C 194.82 61.28 226.39 52.82 257.71 52.94
  C 263.55 52.96 269.28 53.70 275.05 54.30
  Q 291.63 56.02 311.55 62.96
  C 323.87 67.25 335.97 73.67 346.39 80.74
  Q 355.60 87.00 366.56 96.69
  C 369.71 99.49 372.14 102.86 375.15 105.69
  Q 377.83 108.22 380.99 112.33
  Q 391.21 125.63 397.13 136.45
  Q 403.00 147.19 408.36 163.53
  Q 411.19 172.16 412.83 181.96
  Q 415.75 199.50 414.86 218.48
  C 414.79 219.99 413.99 220.83 414.88 222.29
  Q 426.53 241.63 437.43 261.37
  C 447.35 279.32 456.15 298.32 460.29 318.63
  C 461.20 323.08 460.85 327.17 461.57 331.44
  C 462.02 334.09 461.09 336.34 461.03 338.93
  A 1.12 1.12 0.0 0 1 459.96 340.03
  L 243.25 349.96
  Q 242.03 350.02 241.95 351.24
  L 241.92 351.71
  Q 241.84 352.85 242.98 352.92
  Q 248.68 353.27 252.89 352.74
  C 259.84 351.87 264.35 352.03 270.23 352.01
  C 273.59 352.00 276.91 351.28 280.26 351.17
  C 285.97 350.98 292.26 351.51 297.94 350.53
  C 305.22 349.27 312.64 350.45 319.96 349.59
  C 327.53 348.69 335.04 349.46 342.62 348.43
  C 349.57 347.48 356.80 348.47 364.04 347.55
  C 371.13 346.65 378.54 347.53 385.73 346.47
  C 392.53 345.47 399.88 346.40 407.08 345.56
  Q 414.37 344.71 424.06 345.00
  C 427.52 345.10 430.94 344.06 434.48 344.05
  C 440.43 344.03 446.02 344.14 451.96 343.36
  Q 456.70 342.75 461.29 343.04
  A 2.51 2.51 0.0 0 0 463.96 340.54
  Q 463.97 337.49 464.45 334.40
  C 464.75 332.51 464.08 330.47 464.08 328.53
  Q 464.09 320.20 461.73 311.20
  Q 458.10 297.40 453.26 286.84
  C 449.50 278.63 446.04 270.55 441.61 262.49
  Q 429.98 241.39 418.12 222.20
  A 3.17 3.13 30.9 0 1 417.65 220.38
  Q 418.19 210.83 417.97 201.18
  C 417.90 198.26 417.40 195.52 417.20 192.59
  Q 416.99 189.36 416.48 185.82
  Q 413.57 165.52 405.01 146.30
  Q 400.37 135.88 395.94 128.55
  Q 390.28 119.19 381.41 108.01
  C 379.39 105.46 376.83 103.48 374.82 100.80
  Q 371.76 96.74 367.25 93.33
  C 364.16 90.98 361.83 88.02 358.59 85.72
  Q 354.52 82.83 350.31 79.65
  C 344.52 75.28 337.86 71.86 331.62 68.28
  C 328.74 66.63 325.53 65.67 322.50 64.22
  Q 319.46 62.77 315.51 61.28
  Q 289.58 51.48 263.18 50.06
  Q 247.23 49.20 226.65 52.60
  Q 222.45 53.30 217.99 54.47
  C 212.46 55.93 206.66 57.02 201.42 59.10
  Q 197.93 60.48 194.21 61.78
  C 190.59 63.04 187.33 65.09 183.81 66.44
  C 178.51 68.47 173.87 71.57 169.00 74.29
  C 162.87 77.70 157.42 82.13 151.82 86.33
  C 148.83 88.58 146.38 91.28 143.54 93.59
  Q 140.30 96.23 137.77 99.25
  C 134.49 103.18 130.70 106.50 127.51 110.60
  Q 120.58 119.53 114.74 129.11"
/>
<path stroke="#686450" vector-effect="non-scaling-stroke" d="
  M 169.19 178.93
  Q 169.77 178.31 170.76 178.30
  Q 181.53 178.13 192.25 178.26
  A 2.29 2.28 -67.2 0 0 193.89 177.59
  Q 196.35 175.14 199.03 172.34
  Q 200.58 170.71 201.15 168.59
  Q 201.71 166.53 201.34 164.22
  Q 200.68 160.16 198.11 156.90
  Q 194.18 151.92 189.26 147.91
  Q 180.80 141.02 172.71 134.57
  Q 171.69 133.76 170.72 133.61
  Q 169.77 133.46 168.86 133.05
  Q 168.26 132.78 167.60 132.89
  Q 165.18 133.28 163.07 132.13
  A 2.35 2.23 58.8 0 0 162.08 131.86
  L 140.73 131.28"
/>
<path stroke="#686450" vector-effect="non-scaling-stroke" d="
  M 155.44 156.68
  Q 151.40 152.74 147.26 151.37
  Q 141.75 149.55 134.57 152.08
  C 131.12 153.30 129.62 158.31 128.69 161.57
  Q 127.99 164.04 128.47 166.62
  Q 129.28 171.00 130.04 175.24
  Q 131.14 181.30 133.87 184.19
  Q 136.78 187.28 139.81 190.61
  C 141.47 192.43 141.01 194.28 139.42 196.00
  Q 136.99 198.63 135.15 201.43
  C 134.46 202.49 133.26 203.11 132.45 204.17
  C 129.34 208.24 126.41 211.54 122.04 214.26
  Q 117.56 217.06 112.56 222.07
  Q 109.93 224.71 106.54 232.40"
/>
<path stroke="#686450" vector-effect="non-scaling-stroke" d="
  M 172.03 262.15
  Q 173.84 265.22 171.70 267.31
  Q 170.65 268.33 169.51 268.32
  C 167.44 268.30 165.48 268.44 163.45 268.90
  C 160.66 269.54 157.87 269.42 155.00 269.97
  Q 150.70 270.80 146.55 271.25
  C 141.04 271.85 135.97 274.22 130.56 274.23
  Q 120.69 274.25 109.77 274.29
  C 102.49 274.32 95.83 273.27 88.81 271.67
  Q 79.46 269.54 77.02 260.67
  C 76.28 257.97 74.80 255.47 74.80 252.61
  Q 74.80 245.81 75.08 238.86
  Q 75.11 238.29 75.39 237.80
  Q 75.95 236.80 75.87 235.66
  Q 75.83 235.13 76.13 234.69
  Q 78.54 231.19 80.16 227.51
  C 80.78 226.09 81.70 225.32 82.37 223.91
  Q 83.30 221.96 85.38 220.32
  Q 85.78 220.01 85.88 219.51
  C 86.45 216.90 89.36 214.59 91.20 212.71
  Q 92.96 210.90 95.13 209.65
  Q 97.37 208.35 98.33 206.09
  Q 98.52 205.62 98.97 205.38
  Q 100.11 204.76 100.95 203.65
  Q 101.27 203.22 101.77 203.04
  Q 102.99 202.60 104.17 202.09
  Q 104.25 202.06 104.30 201.99
  Q 104.49 201.75 104.18 201.75
  A 0.04 0.04 0.0 0 1 104.16 201.68
  Q 106.31 200.49 107.92 198.53
  Q 108.23 198.16 108.70 198.06
  Q 110.00 197.81 109.87 196.36
  Q 109.55 192.82 107.94 190.41
  Q 98.12 175.75 99.55 158.22
  C 100.05 152.04 103.87 149.34 108.38 145.94
  C 111.21 143.82 113.19 141.19 116.03 139.04
  C 118.51 137.16 121.43 137.16 124.06 135.45
  A 0.26 0.25 80.3 0 0 124.18 135.27
  Q 124.27 134.77 123.79 134.98"
/>
<path stroke="#686450" vector-effect="non-scaling-stroke" d="
  M 126.35 134.25
  Q 128.06 135.15 128.89 133.71"
/>
<path stroke="#686450" vector-effect="non-scaling-stroke" d="
  M 130.01 133.33
  Q 132.68 133.78 133.53 132.69"
/>
<path stroke="#686450" vector-effect="non-scaling-stroke" d="
  M 309.85 217.89
  Q 311.08 203.29 304.15 191.31
  Q 293.96 173.71 274.68 167.95
  Q 264.65 164.96 254.99 166.35
  Q 239.12 168.65 227.25 179.42
  C 224.57 181.85 222.25 185.27 219.77 188.23
  Q 217.15 191.35 215.63 196.41"
/>
<path stroke="#686450" vector-effect="non-scaling-stroke" d="
  M 307.22 217.91
  C 306.98 214.22 307.19 210.69 306.54 207.06
  Q 305.18 199.47 300.99 191.86
  Q 299.49 189.13 297.55 186.90
  Q 295.44 184.48 293.47 182.44
  Q 290.73 179.62 286.59 176.72
  C 277.73 170.52 265.11 167.95 254.46 169.58
  Q 229.22 173.42 217.90 198.04"
/>
<path stroke="#686450" vector-effect="non-scaling-stroke" d="
  M 189.05 332.93
  L 191.45 325.49
  Q 191.63 324.94 192.20 324.81
  C 193.56 324.49 195.20 324.54 196.45 325.32
  Q 197.71 326.11 198.72 325.10
  C 201.21 322.58 203.50 320.01 206.52 317.92
  Q 215.13 311.97 222.56 305.84
  Q 226.75 302.38 231.60 299.48
  Q 236.56 296.51 241.47 293.73
  C 243.37 292.66 245.60 292.05 247.69 291.29
  Q 249.63 290.59 251.92 288.60
  C 255.54 285.45 261.00 282.41 265.93 280.79
  Q 267.99 280.12 269.93 278.28
  Q 273.40 274.99 277.23 271.53
  Q 279.17 269.79 286.17 260.30
  C 291.10 253.62 290.98 245.27 290.15 237.35
  C 288.94 225.66 278.87 218.57 270.55 212.01
  Q 267.55 209.65 264.70 209.10
  C 257.46 207.68 249.87 207.62 242.39 209.02
  Q 238.31 209.78 234.25 210.66
  Q 187.55 220.83 140.75 230.53
  C 137.50 231.20 136.75 236.20 135.66 237.91
  Q 131.41 244.60 130.07 251.94"
/>
<path stroke="#686450" vector-effect="non-scaling-stroke" d="
  M 184.84 346.37
  Q 172.34 354.07 164.52 359.28
  Q 161.51 361.28 158.27 360.36
  Q 157.77 360.22 157.64 359.72
  Q 157.18 357.94 157.62 356.26
  Q 159.12 350.49 161.07 344.57
  C 163.72 336.50 165.92 328.11 168.52 319.93
  C 171.33 311.07 174.02 302.01 176.04 293.31
  Q 177.10 288.73 178.41 285.28
  C 179.46 282.49 179.91 279.63 180.45 276.72
  C 180.70 275.39 181.26 274.41 182.15 273.40
  Q 183.00 272.44 183.44 270.64
  Q 184.87 264.81 187.19 259.30
  A 0.40 0.39 33.1 0 1 187.82 259.17
  Q 188.56 259.84 188.73 259.69
  Q 188.73 259.69 188.73 259.68
  L 188.74 259.68
  Q 188.91 259.50 188.73 259.33
  Q 187.54 258.20 186.36 256.99
  A 0.92 0.91 -56.1 0 1 186.17 256.00
  C 187.87 251.83 191.49 249.90 195.78 249.09
  C 197.71 248.72 199.55 248.00 201.38 247.34
  Q 203.47 246.57 205.51 246.34
  C 208.22 246.04 210.51 244.58 213.26 244.65
  Q 216.43 244.74 219.07 243.68
  C 221.80 242.59 224.62 242.87 227.45 242.80
  A 3.51 3.51 0.0 0 1 231.05 246.32
  L 231.03 251.44
  Q 231.03 252.00 230.68 252.45
  Q 227.54 256.50 223.19 258.63
  C 219.45 260.45 217.48 263.43 213.19 264.46
  Q 211.38 264.90 210.01 266.00
  Q 207.50 268.01 208.75 269.63"
/>
<path stroke="#686450" vector-effect="non-scaling-stroke" d="
  M 16.70 378.04
  Q 17.48 379.31 18.98 379.34
  A 2.05 2.05 0.0 0 1 20.99 381.42
  Q 20.92 387.48 21.03 394.07
  C 21.06 395.79 19.83 397.03 18.06 396.82
  Q 17.55 396.76 17.20 397.13
  Q 16.90 397.44 16.74 397.97"
/>
<path stroke="#686450" vector-effect="non-scaling-stroke" d="
  M 39.26 378.08
  Q 39.19 378.30 39.13 378.53"
/>
<path stroke="#686450" vector-effect="non-scaling-stroke" d="
  M 37.16 384.69
  Q 35.47 378.86 30.49 379.34"
/>
<path stroke="#686450" vector-effect="non-scaling-stroke" d="
  M 26.26 387.82
  Q 30.86 388.00 31.12 382.18"
/>
<path stroke="#686450" vector-effect="non-scaling-stroke" d="
  M 31.20 393.75
  Q 30.75 390.13 27.73 389.30
  Q 26.89 389.07 26.67 389.45"
/>
<path stroke="#686450" vector-effect="non-scaling-stroke" d="
  M 29.43 396.65
  Q 35.84 397.09 37.58 391.18"
/>
<path stroke="#686450" vector-effect="non-scaling-stroke" d="
  M 39.56 397.29
  Q 39.90 397.00 39.63 397.73"
/>
<path stroke="#686450" vector-effect="non-scaling-stroke" d="
  M 41.03 378.02
  Q 41.49 379.07 42.50 379.11
  Q 45.67 379.24 45.71 382.50
  Q 45.77 388.23 45.74 394.02
  Q 45.72 397.38 41.49 396.95"
/>
<path stroke="#686450" vector-effect="non-scaling-stroke" d="
  M 55.29 396.79
  Q 61.47 396.41 62.62 389.02"
/>
<path stroke="#686450" vector-effect="non-scaling-stroke" d="
  M 64.56 397.26
  Q 64.91 397.05 64.36 397.73"
/>
<path stroke="#686450" vector-effect="non-scaling-stroke" d="
  M 40.94 397.97
  Q 41.42 397.40 41.49 396.95"
/>
<path stroke="#686450" vector-effect="non-scaling-stroke" d="
  M 65.72 378.10
  Q 68.56 379.18 69.89 380.43
  Q 70.25 380.78 70.25 381.29
  Q 70.25 386.93 70.27 394.11
  C 70.28 396.40 68.23 397.16 66.17 396.95"
/>
<path stroke="#686450" vector-effect="non-scaling-stroke" d="
  M 86.55 385.25
  Q 85.09 379.03 79.97 379.35"
/>
<path stroke="#686450" vector-effect="non-scaling-stroke" d="
  M 75.60 387.78
  Q 80.07 387.87 80.44 382.21"
/>
<path stroke="#686450" vector-effect="non-scaling-stroke" d="
  M 80.44 394.23
  Q 80.13 389.83 76.49 389.12
  Q 75.95 389.01 75.98 389.47"
/>
<path stroke="#686450" vector-effect="non-scaling-stroke" d="
  M 79.05 396.65
  Q 85.35 397.00 87.12 390.51"
/>
<path stroke="#686450" vector-effect="non-scaling-stroke" d="
  M 65.96 397.98
  Q 66.58 397.17 66.17 396.95"
/>
<path stroke="#686450" vector-effect="non-scaling-stroke" d="
  M 99.98 378.14
  Q 93.74 380.88 92.34 385.85
  C 90.65 391.83 95.15 396.46 100.73 397.85"
/>
<path stroke="#686450" vector-effect="non-scaling-stroke" d="
  M 108.93 380.15
  Q 109.59 382.15 111.51 378.06"
/>
<path stroke="#686450" vector-effect="non-scaling-stroke" d="
  M 112.10 386.96
  Q 109.97 380.10 103.43 379.27"
/>
<path stroke="#686450" vector-effect="non-scaling-stroke" d="
  M 104.68 396.65
  C 107.95 397.30 111.20 393.78 112.16 391.08"
/>
<path stroke="#686450" vector-effect="non-scaling-stroke" d="
  M 116.49 378.02
  L 116.32 387.84"
/>
<path stroke="#686450" vector-effect="non-scaling-stroke" d="
  M 139.04 388.14
  Q 139.03 381.12 132.88 379.12
  Q 132.07 378.86 132.03 379.40"
/>
<path stroke="#686450" vector-effect="non-scaling-stroke" d="
  M 119.51 397.97
  Q 119.78 397.50 119.47 397.02"
/>
<path stroke="#686450" vector-effect="non-scaling-stroke" d="
  M 122.51 396.65
  Q 125.99 397.45 125.99 394.49
  Q 125.99 387.33 125.99 380.12
  Q 125.99 379.26 125.54 379.09
  Q 125.07 378.91 124.16 379.00"
/>
<path stroke="#686450" vector-effect="non-scaling-stroke" d="
  M 142.95 378.02
  L 143.23 379.07"
/>
<path stroke="#686450" vector-effect="non-scaling-stroke" d="
  M 162.31 398.20
  Q 159.25 392.65 155.92 389.33
  Q 155.30 388.71 154.49 389.03"
/>
<path stroke="#686450" vector-effect="non-scaling-stroke" d="
  M 142.98 397.96
  L 143.01 397.00"
/>
<path stroke="#686450" vector-effect="non-scaling-stroke" d="
  M 143.75 396.71
  C 146.38 397.24 147.19 395.38 147.22 393.08
  Q 147.29 387.81 147.19 382.49
  Q 147.11 378.80 143.23 379.07"
/>
<path stroke="#686450" vector-effect="non-scaling-stroke" d="
  M 172.72 378.03
  Q 173.12 378.66 173.06 378.98"
/>
<path stroke="#686450" vector-effect="non-scaling-stroke" d="
  M 174.59 396.81
  Q 176.79 396.85 177.06 393.24
  Q 177.54 386.64 176.86 381.49
  Q 176.71 380.35 176.18 379.80
  Q 175.32 378.92 174.17 379.39"
/>
<path stroke="#686450" vector-effect="non-scaling-stroke" d="
  M 206.88 380.37
  Q 207.92 381.39 209.05 378.03"
/>
<path stroke="#686450" vector-effect="non-scaling-stroke" d="
  M 209.48 387.53
  Q 208.80 380.76 201.39 379.27"
/>
<path stroke="#686450" vector-effect="non-scaling-stroke" d="
  M 203.43 396.45
  Q 208.08 395.98 209.94 391.01"
/>
<path stroke="#686450" vector-effect="non-scaling-stroke" d="
  M 197.63 397.80
  Q 191.91 395.64 190.27 391.49
  C 188.49 387.01 190.53 383.03 194.16 380.33
  Q 195.57 379.28 197.08 378.15"
/>
<path stroke="#686450" vector-effect="non-scaling-stroke" d="
  M 216.39 396.72
  Q 218.27 396.75 218.57 395.01
  Q 219.51 389.72 218.55 381.35
  Q 218.45 380.52 217.97 380.00
  Q 217.16 379.14 216.56 379.32"
/>
<path stroke="#686450" vector-effect="non-scaling-stroke" d="
  M 232.41 396.42
  Q 233.97 396.60 234.17 394.41
  Q 234.46 391.15 234.19 382.61
  Q 234.15 381.43 233.84 380.72
  Q 233.25 379.41 232.27 379.42"
/>
<path stroke="#686450" vector-effect="non-scaling-stroke" d="
  M 270.48 377.74
  Q 268.07 384.32 263.82 392.75
  Q 262.32 395.75 259.64 396.84
  Q 259.20 397.02 258.97 397.28
  Q 258.71 397.58 258.48 397.95"
/>
<path stroke="#686450" vector-effect="non-scaling-stroke" d="
  M 284.69 397.47
  Q 284.68 397.68 284.67 397.89"
/>
<path stroke="#686450" vector-effect="non-scaling-stroke" d="
  M 271.71 397.95
  L 271.95 397.05"
/>
<path stroke="#686450" vector-effect="non-scaling-stroke" d="
  M 274.15 396.60
  Q 274.74 396.94 275.12 396.38
  Q 275.34 396.05 275.24 395.56
  Q 274.68 392.75 272.68 392.08"
/>
<path stroke="#686450" vector-effect="non-scaling-stroke" d="
  M 285.71 397.97
  L 285.95 397.05"
/>
<path stroke="#686450" vector-effect="non-scaling-stroke" d="
  M 287.71 396.35
  Q 288.57 396.80 289.23 395.99
  Q 290.00 395.05 289.98 393.25
  Q 289.91 387.64 289.80 382.05
  Q 289.78 381.13 289.48 380.54
  Q 288.95 379.47 288.24 379.47"
/>
<path stroke="#686450" vector-effect="non-scaling-stroke" d="
  M 327.33 395.77
  Q 328.37 395.19 328.47 394.24
  Q 329.14 388.23 327.93 380.60"
/>
<path stroke="#686450" vector-effect="non-scaling-stroke" d="
  M 353.75 395.79
  Q 354.52 395.21 354.67 393.00
  Q 355.11 386.13 353.99 380.64"
/>
<path stroke="#686450" vector-effect="non-scaling-stroke" d="
  M 374.49 395.85
  Q 374.84 395.99 375.26 395.31
  Q 375.49 394.96 375.49 394.46
  Q 375.63 387.01 375.32 379.47"
/>
<path stroke="#686450" vector-effect="non-scaling-stroke" d="
  M 318.04 116.41
  L 318.02 152.75
  A 1.25 1.24 -89.8 0 0 319.25 154.00
  Q 322.67 154.03 326.70 153.44
  C 330.37 152.91 333.97 153.16 337.62 152.48
  Q 340.48 151.94 343.39 151.97
  C 347.22 152.01 350.84 150.95 354.71 150.96
  Q 356.32 150.97 356.21 149.37
  L 356.19 149.04
  A 1.11 1.09 0.6 0 0 355.18 148.02
  Q 352.49 147.80 349.78 148.35
  C 346.47 149.02 343.15 148.73 339.97 149.20
  Q 334.74 149.98 329.34 150.08
  C 326.89 150.13 324.60 150.98 322.12 151.05
  A 1.05 1.04 89.2 0 1 321.05 150.00
  L 321.01 114.01
  A 0.97 0.97 0.0 0 0 320.25 113.06
  L 317.27 112.38
  Q 316.81 112.28 316.36 112.46
  L 287.52 123.98
  A 1.00 0.99 -26.0 0 1 286.29 123.56
  Q 285.33 121.90 284.62 120.10
  Q 279.04 105.94 273.39 91.98
  Q 272.57 89.94 270.62 90.44
  Q 270.19 90.55 269.83 90.30
  Q 269.24 89.89 268.55 90.00
  Q 267.79 90.13 267.08 90.72
  Q 256.72 99.36 246.47 108.13
  C 243.63 110.56 240.54 112.77 237.89 115.56
  A 1.27 1.27 0.0 0 1 236.10 115.61
  Q 231.15 110.96 227.33 106.36
  C 223.70 101.98 220.30 98.68 216.69 95.11
  C 215.46 93.89 214.69 92.20 213.26 91.23
  A 1.88 1.88 0.0 0 0 210.58 91.83
  Q 209.43 93.76 208.68 95.76
  Q 203.37 109.98 198.31 123.40
  A 1.90 1.87 -64.4 0 0 199.10 125.68
  Q 199.30 125.80 199.51 125.69
  Q 201.16 124.85 201.75 123.18
  Q 206.37 110.28 212.15 95.42
  Q 212.34 94.93 212.73 95.27
  Q 216.65 98.67 219.80 102.59
  Q 222.93 106.48 225.68 109.21
  C 228.27 111.77 231.41 114.39 233.23 117.41
  C 234.28 119.16 237.32 119.71 238.62 118.62
  Q 253.36 106.23 268.73 93.40
  Q 270.10 92.26 270.76 93.92
  L 283.90 126.92
  A 1.91 1.90 -22.0 0 0 286.39 127.97
  L 316.66 115.49
  Q 318.04 114.92 318.04 116.41"
/>
<path stroke="#686450" vector-effect="non-scaling-stroke" d="
  M 371.80 202.28
  A 0.27 0.27 0.0 0 1 371.88 202.72
  Q 361.45 212.96 351.13 223.29
  C 350.05 224.37 348.72 225.06 347.60 226.06
  A 2.04 2.03 50.0 0 0 347.36 228.86
  Q 348.64 230.45 350.13 231.41
  Q 359.95 237.76 370.58 245.49
  Q 372.23 246.69 373.92 247.54
  A 0.54 0.54 0.0 0 1 373.94 248.49
  Q 372.27 249.44 370.52 250.40
  Q 355.31 258.79 344.99 264.73
  Q 343.49 265.60 342.27 267.18
  A 1.40 1.39 -51.1 0 0 342.47 269.10
  Q 346.60 272.63 349.58 276.59
  C 352.09 279.91 355.15 282.28 357.56 285.45
  Q 360.34 289.11 363.76 292.30
  A 0.37 0.36 63.0 0 1 363.56 292.93
  Q 360.41 293.30 357.25 292.74
  C 349.89 291.43 342.53 292.49 335.14 291.36
  Q 331.29 290.78 327.16 291.03
  A 1.32 1.32 0.0 0 0 325.92 292.40
  Q 326.29 301.18 325.49 309.28
  C 325.00 314.29 324.98 318.56 324.98 323.18
  A 0.83 0.83 0.0 0 1 323.74 323.90
  L 294.88 307.58
  A 0.24 0.17 -10.9 0 0 294.81 307.55
  Q 292.75 307.02 292.46 307.83
  Q 292.03 309.03 293.11 309.71
  C 303.18 316.00 314.03 321.49 324.47 327.74
  A 1.86 1.86 0.0 0 0 327.07 327.01
  C 327.82 325.59 328.11 323.99 328.02 322.28
  Q 327.64 315.15 328.35 309.89
  C 329.08 304.38 329.10 300.16 328.99 295.17
  A 1.16 1.16 0.0 0 1 330.08 293.98
  C 334.92 293.68 339.14 295.20 344.02 295.04
  Q 352.20 294.77 360.64 295.81
  Q 364.35 296.26 368.39 295.82
  A 0.88 0.87 -10.5 0 0 369.15 294.73
  C 368.97 294.07 368.68 293.30 368.19 292.82
  C 365.46 290.08 362.77 287.38 360.40 284.27
  C 358.03 281.16 355.06 278.75 352.70 275.67
  Q 350.07 272.22 346.14 268.72
  A 0.80 0.79 -38.4 0 1 346.29 267.43
  L 376.60 250.63
  A 2.69 2.53 59.9 0 0 377.46 246.97
  Q 376.85 245.95 375.17 244.85
  Q 362.40 236.47 351.54 228.62
  Q 350.53 227.89 351.41 227.00
  Q 358.81 219.59 366.35 212.20
  C 369.67 208.93 374.09 206.83 375.88 202.26
  Q 376.08 201.76 375.78 201.31
  Q 374.81 199.83 373.12 199.19
  Q 358.61 193.61 344.66 187.61
  A 1.50 1.50 0.0 0 1 343.89 185.62
  Q 351.08 169.69 358.49 152.84
  Q 358.77 152.20 358.71 151.55
  Q 358.61 150.41 357.49 150.33
  A 1.49 1.48 -76.2 0 0 356.03 151.22
  L 340.58 185.84
  A 3.30 3.29 22.4 0 0 342.42 190.26
  Q 357.32 195.93 371.80 202.28"
/>
<path stroke="#686450" vector-effect="non-scaling-stroke" d="
  M 416.0749 332.8233
  A 20.85 20.03 87.1 0 0 435.0243 310.9866
  A 20.85 20.03 87.1 0 0 413.9651 291.1767
  A 20.85 20.03 87.1 0 0 395.0157 313.0134
  A 20.85 20.03 87.1 0 0 416.0749 332.8233"
/>
<path stroke="#686450" vector-effect="non-scaling-stroke" d="
  M 414.9685 330.0600
  A 18.02 16.92 90.1 0 0 431.9200 312.0695
  A 18.02 16.92 90.1 0 0 415.0315 294.0200
  A 18.02 16.92 90.1 0 0 398.0800 312.0105
  A 18.02 16.92 90.1 0 0 414.9685 330.0600"
/>
<path stroke="#686450" vector-effect="non-scaling-stroke" d="
  M 157.79 387.71
  C 161.16 388.23 163.07 386.08 162.75 382.84
  Q 162.38 379.13 158.41 379.33"
/>
<path stroke="#686450" vector-effect="non-scaling-stroke" d="
  M 245.55 396.53
  Q 251.80 394.90 250.57 385.87
  Q 249.76 379.94 244.79 379.35"
/>
<path stroke="#686450" vector-effect="non-scaling-stroke" d="
  M 272.86 390.89
  L 270.15 383.97
  Q 270.03 383.67 269.72 383.56
  Q 269.49 383.48 269.37 383.64
  Q 269.30 383.74 269.31 383.87
  Q 269.40 384.81 269.45 384.11"
/>
<path stroke="#686450" vector-effect="non-scaling-stroke" d="
  M 301.23 396.32
  C 303.90 397.14 306.10 392.83 306.39 390.77
  Q 307.74 381.23 300.91 379.37"
/>
</g>
<path fill="#000000" d="
  M 116.35 131.79
  Q 118.64 128.64 120.70 125.34
  Q 123.09 121.50 125.07 118.91
  C 128.22 114.78 131.15 110.52 134.78 106.79
  Q 143.95 97.38 150.20 91.77
  Q 157.22 85.47 168.29 78.35
  C 194.82 61.28 226.39 52.82 257.71 52.94
  C 263.55 52.96 269.28 53.70 275.05 54.30
  Q 291.63 56.02 311.55 62.96
  C 323.87 67.25 335.97 73.67 346.39 80.74
  Q 355.60 87.00 366.56 96.69
  C 369.71 99.49 372.14 102.86 375.15 105.69
  Q 377.83 108.22 380.99 112.33
  Q 391.21 125.63 397.13 136.45
  Q 403.00 147.19 408.36 163.53
  Q 411.19 172.16 412.83 181.96
  Q 415.75 199.50 414.86 218.48
  C 414.79 219.99 413.99 220.83 414.88 222.29
  Q 426.53 241.63 437.43 261.37
  C 447.35 279.32 456.15 298.32 460.29 318.63
  C 461.20 323.08 460.85 327.17 461.57 331.44
  C 462.02 334.09 461.09 336.34 461.03 338.93
  A 1.12 1.12 0.0 0 1 459.96 340.03
  L 243.25 349.96
  Q 242.03 350.02 241.95 351.24
  L 241.92 351.71
  Q 241.84 352.85 242.98 352.92
  Q 248.68 353.27 252.89 352.74
  C 259.84 351.87 264.35 352.03 270.23 352.01
  C 273.59 352.00 276.91 351.28 280.26 351.17
  C 285.97 350.98 292.26 351.51 297.94 350.53
  C 305.22 349.27 312.64 350.45 319.96 349.59
  C 327.53 348.69 335.04 349.46 342.62 348.43
  C 349.57 347.48 356.80 348.47 364.04 347.55
  C 371.13 346.65 378.54 347.53 385.73 346.47
  C 392.53 345.47 399.88 346.40 407.08 345.56
  Q 414.37 344.71 424.06 345.00
  C 427.52 345.10 430.94 344.06 434.48 344.05
  C 440.43 344.03 446.02 344.14 451.96 343.36
  Q 456.70 342.75 461.29 343.04
  A 2.51 2.51 0.0 0 0 463.96 340.54
  Q 463.97 337.49 464.45 334.40
  C 464.75 332.51 464.08 330.47 464.08 328.53
  Q 464.09 320.20 461.73 311.20
  Q 458.10 297.40 453.26 286.84
  C 449.50 278.63 446.04 270.55 441.61 262.49
  Q 429.98 241.39 418.12 222.20
  A 3.17 3.13 30.9 0 1 417.65 220.38
  Q 418.19 210.83 417.97 201.18
  C 417.90 198.26 417.40 195.52 417.20 192.59
  Q 416.99 189.36 416.48 185.82
  Q 413.57 165.52 405.01 146.30
  Q 400.37 135.88 395.94 128.55
  Q 390.28 119.19 381.41 108.01
  C 379.39 105.46 376.83 103.48 374.82 100.80
  Q 371.76 96.74 367.25 93.33
  C 364.16 90.98 361.83 88.02 358.59 85.72
  Q 354.52 82.83 350.31 79.65
  C 344.52 75.28 337.86 71.86 331.62 68.28
  C 328.74 66.63 325.53 65.67 322.50 64.22
  Q 319.46 62.77 315.51 61.28
  Q 289.58 51.48 263.18 50.06
  Q 247.23 49.20 226.65 52.60
  Q 222.45 53.30 217.99 54.47
  C 212.46 55.93 206.66 57.02 201.42 59.10
  Q 197.93 60.48 194.21 61.78
  C 190.59 63.04 187.33 65.09 183.81 66.44
  C 178.51 68.47 173.87 71.57 169.00 74.29
  C 162.87 77.70 157.42 82.13 151.82 86.33
  C 148.83 88.58 146.38 91.28 143.54 93.59
  Q 140.30 96.23 137.77 99.25
  C 134.49 103.18 130.70 106.50 127.51 110.60
  Q 120.58 119.53 114.74 129.11
  Q 114.56 128.87 114.03 128.91
  A 0.85 0.85 0.0 0 1 113.21 127.66
  C 116.69 121.05 121.39 114.94 125.93 109.20
  Q 128.80 105.60 131.57 102.81
  C 134.32 100.05 136.48 96.96 139.54 94.37
  C 143.47 91.04 146.91 87.48 151.09 84.16
  Q 189.32 53.77 237.71 48.40
  Q 246.48 47.43 268.13 48.08
  C 271.40 48.18 274.33 48.93 277.60 49.10
  Q 279.42 49.19 281.34 49.57
  Q 298.14 52.84 305.90 55.54
  C 312.37 57.78 319.02 60.15 325.31 63.13
  Q 348.70 74.22 367.52 91.57
  C 369.43 93.33 371.59 94.83 373.25 96.77
  C 377.02 101.19 380.97 105.20 384.64 109.80
  Q 413.77 146.27 420.19 193.32
  C 421.36 201.84 420.85 209.97 421.09 218.50
  Q 421.15 220.68 422.45 223.24
  Q 425.74 229.75 428.76 235.26
  Q 435.36 247.28 442.99 260.73
  C 446.46 266.84 449.62 273.16 452.84 279.59
  C 459.03 291.94 463.68 305.49 466.11 318.74
  C 467.28 325.12 466.86 330.75 467.09 337.01
  Q 467.24 341.01 464.30 343.98
  Q 462.31 345.99 458.81 345.92
  Q 448.48 345.70 437.84 346.64
  Q 433.59 347.02 422.50 346.99
  C 420.00 346.98 417.34 347.77 415.23 347.75
  Q 406.66 347.67 398.39 348.34
  C 390.46 348.99 384.14 349.02 376.75 349.05
  C 374.99 349.05 373.09 349.75 371.19 349.73
  Q 362.62 349.62 354.49 350.37
  C 346.98 351.06 339.33 350.62 331.95 351.32
  C 325.32 351.94 318.72 351.70 312.01 352.30
  C 304.44 352.96 297.24 352.88 289.78 353.15
  C 287.75 353.22 285.80 353.78 283.71 353.75
  Q 275.33 353.67 267.33 354.37
  C 258.62 355.13 250.19 355.05 241.83 354.99
  Q 241.25 354.98 240.91 354.51
  Q 239.09 351.97 240.59 348.85
  Q 240.85 348.31 241.43 348.20
  C 244.20 347.66 246.90 346.97 249.76 347.03
  C 258.97 347.21 267.66 346.13 276.38 346.09
  Q 280.77 346.07 285.33 345.68
  Q 290.08 345.27 294.21 345.18
  Q 299.64 345.07 304.93 344.74
  Q 312.78 344.24 319.60 344.21
  Q 324.30 344.18 329.39 343.70
  C 337.09 342.96 344.66 343.25 351.94 342.62
  C 359.43 341.98 366.85 342.21 374.27 341.61
  Q 379.76 341.16 384.25 341.07
  Q 389.66 340.97 394.56 340.61
  Q 403.69 339.93 412.10 340.28
  C 416.37 340.46 420.18 339.06 424.28 339.21
  Q 430.75 339.45 436.43 338.85
  Q 446.97 337.74 457.20 338.21
  Q 459.04 338.30 459.09 336.46
  C 459.24 330.34 459.33 324.10 457.91 317.92
  Q 453.74 299.76 448.50 288.94
  C 443.84 279.34 439.26 270.00 434.03 260.75
  Q 427.62 249.40 421.05 237.58
  Q 417.22 230.70 413.59 223.18
  A 5.47 5.46 -58.4 0 1 413.05 220.90
  C 412.96 211.24 413.24 201.33 411.92 192.15
  Q 407.71 163.00 394.25 138.50
  Q 385.92 123.34 375.42 111.11
  Q 367.45 101.82 357.92 93.58
  Q 351.23 87.80 341.84 81.53
  Q 333.39 75.89 324.60 71.62
  Q 303.89 61.56 280.94 57.61
  C 267.37 55.27 251.82 55.18 238.63 56.38
  Q 227.62 57.38 215.45 60.55
  Q 204.70 63.35 192.68 68.35
  Q 184.64 71.70 175.06 77.34
  C 154.26 89.57 136.47 106.62 122.95 126.46
  C 122.11 127.70 121.41 128.94 120.76 130.29
  Q 119.57 132.76 116.35 131.79
  Z"
/>
<path fill="#d0c79f" d="
  M 116.35 131.79
  Q 115.99 132.02 115.66 131.91
  Q 115.19 131.74 115.11 131.25
  L 114.74 129.11
  Q 120.58 119.53 127.51 110.60
  C 130.70 106.50 134.49 103.18 137.77 99.25
  Q 140.30 96.23 143.54 93.59
  C 146.38 91.28 148.83 88.58 151.82 86.33
  C 157.42 82.13 162.87 77.70 169.00 74.29
  C 173.87 71.57 178.51 68.47 183.81 66.44
  C 187.33 65.09 190.59 63.04 194.21 61.78
  Q 197.93 60.48 201.42 59.10
  C 206.66 57.02 212.46 55.93 217.99 54.47
  Q 222.45 53.30 226.65 52.60
  Q 247.23 49.20 263.18 50.06
  Q 289.58 51.48 315.51 61.28
  Q 319.46 62.77 322.50 64.22
  C 325.53 65.67 328.74 66.63 331.62 68.28
  C 337.86 71.86 344.52 75.28 350.31 79.65
  Q 354.52 82.83 358.59 85.72
  C 361.83 88.02 364.16 90.98 367.25 93.33
  Q 371.76 96.74 374.82 100.80
  C 376.83 103.48 379.39 105.46 381.41 108.01
  Q 390.28 119.19 395.94 128.55
  Q 400.37 135.88 405.01 146.30
  Q 413.57 165.52 416.48 185.82
  Q 416.99 189.36 417.20 192.59
  C 417.40 195.52 417.90 198.26 417.97 201.18
  Q 418.19 210.83 417.65 220.38
  A 3.17 3.13 30.9 0 0 418.12 222.20
  Q 429.98 241.39 441.61 262.49
  C 446.04 270.55 449.50 278.63 453.26 286.84
  Q 458.10 297.40 461.73 311.20
  Q 464.09 320.20 464.08 328.53
  C 464.08 330.47 464.75 332.51 464.45 334.40
  Q 463.97 337.49 463.96 340.54
  A 2.51 2.51 0.0 0 1 461.29 343.04
  Q 456.70 342.75 451.96 343.36
  C 446.02 344.14 440.43 344.03 434.48 344.05
  C 430.94 344.06 427.52 345.10 424.06 345.00
  Q 414.37 344.71 407.08 345.56
  C 399.88 346.40 392.53 345.47 385.73 346.47
  C 378.54 347.53 371.13 346.65 364.04 347.55
  C 356.80 348.47 349.57 347.48 342.62 348.43
  C 335.04 349.46 327.53 348.69 319.96 349.59
  C 312.64 350.45 305.22 349.27 297.94 350.53
  C 292.26 351.51 285.97 350.98 280.26 351.17
  C 276.91 351.28 273.59 352.00 270.23 352.01
  C 264.35 352.03 259.84 351.87 252.89 352.74
  Q 248.68 353.27 242.98 352.92
  Q 241.84 352.85 241.92 351.71
  L 241.95 351.24
  Q 242.03 350.02 243.25 349.96
  L 459.96 340.03
  A 1.12 1.12 0.0 0 0 461.03 338.93
  C 461.09 336.34 462.02 334.09 461.57 331.44
  C 460.85 327.17 461.20 323.08 460.29 318.63
  C 456.15 298.32 447.35 279.32 437.43 261.37
  Q 426.53 241.63 414.88 222.29
  C 413.99 220.83 414.79 219.99 414.86 218.48
  Q 415.75 199.50 412.83 181.96
  Q 411.19 172.16 408.36 163.53
  Q 403.00 147.19 397.13 136.45
  Q 391.21 125.63 380.99 112.33
  Q 377.83 108.22 375.15 105.69
  C 372.14 102.86 369.71 99.49 366.56 96.69
  Q 355.60 87.00 346.39 80.74
  C 335.97 73.67 323.87 67.25 311.55 62.96
  Q 291.63 56.02 275.05 54.30
  C 269.28 53.70 263.55 52.96 257.71 52.94
  C 226.39 52.82 194.82 61.28 168.29 78.35
  Q 157.22 85.47 150.20 91.77
  Q 143.95 97.38 134.78 106.79
  C 131.15 110.52 128.22 114.78 125.07 118.91
  Q 123.09 121.50 120.70 125.34
  Q 118.64 128.64 116.35 131.79
  Z"
/>
<path fill="#000000" d="
  M 322.90 319.16
  Q 323.13 307.27 323.03 294.25
  Q 323.02 293.04 323.48 291.08
  Q 323.59 290.58 324.07 290.39
  C 326.04 289.62 328.19 288.93 330.31 289.00
  C 332.92 289.09 335.62 288.96 338.18 289.36
  C 342.28 289.99 346.40 290.05 350.50 290.82
  Q 354.00 291.47 357.41 290.90
  A 0.66 0.66 0.0 0 0 357.92 290.01
  Q 357.38 288.64 356.34 287.67
  Q 349.67 281.39 343.71 274.41
  C 341.85 272.23 339.22 273.70 337.55 271.97
  Q 336.52 270.89 336.80 269.20
  Q 337.42 265.63 340.91 264.25
  Q 345.17 262.58 348.87 260.46
  Q 354.85 257.03 356.68 256.10
  Q 363.72 252.52 370.28 248.75
  Q 370.74 248.48 370.30 248.17
  Q 359.94 241.15 350.91 234.76
  Q 348.17 232.82 344.16 232.83
  Q 343.53 232.83 343.08 232.38
  Q 340.40 229.68 343.04 226.54
  C 346.72 222.14 351.40 218.87 355.61 214.83
  C 359.28 211.31 362.72 207.66 366.95 204.67
  Q 368.47 203.60 366.79 202.79
  Q 364.95 201.90 363.10 201.24
  Q 347.39 195.58 342.41 193.74
  C 335.28 191.09 338.49 183.99 341.00 178.99
  Q 342.59 175.82 344.01 172.61
  Q 347.91 163.77 352.03 154.98
  A 0.64 0.63 18.2 0 0 351.58 154.09
  C 349.16 153.60 346.96 154.58 344.57 154.89
  C 337.72 155.77 330.48 157.17 323.49 156.87
  Q 321.16 156.77 319.79 155.65
  Q 319.39 155.33 318.89 155.28
  Q 315.98 154.98 315.99 151.75
  Q 316.04 136.58 316.20 120.03
  Q 316.21 118.91 315.19 119.35
  Q 304.27 124.02 293.27 128.53
  C 290.02 129.86 288.00 131.45 284.22 131.04
  Q 283.66 130.98 283.28 130.58
  Q 280.70 127.88 279.35 124.40
  Q 274.29 111.39 269.36 97.75
  A 0.82 0.81 -25.9 0 0 268.16 97.34
  C 264.15 99.85 261.15 103.35 257.59 106.39
  Q 254.51 109.02 251.36 111.60
  C 247.84 114.47 244.75 118.27 240.89 120.35
  Q 236.94 122.47 233.18 119.43
  Q 229.71 116.64 226.75 113.13
  C 222.13 107.66 218.69 104.07 214.42 99.77
  Q 214.03 99.39 213.86 98.88
  Q 213.81 98.76 213.75 98.62
  Q 213.30 97.67 212.96 98.66
  Q 208.53 111.43 203.55 124.14
  Q 202.13 127.75 198.15 127.07
  C 195.67 126.65 195.64 122.76 196.35 120.86
  Q 201.98 105.65 208.02 89.79
  C 209.35 86.28 214.35 88.30 216.39 90.01
  C 218.56 91.83 220.78 94.03 222.54 96.28
  Q 227.00 101.95 232.78 107.40
  C 234.25 108.79 235.26 110.50 236.38 112.15
  Q 236.99 113.04 237.92 112.50
  C 241.71 110.32 244.13 107.25 247.35 104.49
  C 251.35 101.08 255.43 97.81 259.23 94.24
  Q 261.77 91.86 265.01 89.33
  C 267.82 87.15 270.42 87.87 273.27 89.27
  C 274.84 90.03 275.72 92.16 276.29 93.71
  Q 281.44 107.67 286.35 120.71
  A 2.19 2.19 0.0 0 0 289.49 121.84
  Q 291.53 120.67 293.68 119.74
  Q 303.61 115.49 313.03 111.56
  C 316.14 110.26 319.23 111.54 322.31 112.19
  Q 323.99 112.54 323.99 114.30
  Q 324.03 130.76 323.96 148.23
  Q 323.96 148.80 324.53 148.91
  Q 326.88 149.38 328.91 148.89
  C 332.87 147.92 336.70 147.99 340.56 147.18
  C 342.81 146.72 345.06 146.83 347.34 146.41
  Q 350.34 145.85 354.26 145.93
  Q 357.11 145.99 358.18 148.21
  Q 358.38 148.64 358.80 148.85
  C 359.85 149.38 360.94 150.14 361.02 151.44
  Q 361.23 154.60 360.20 156.55
  Q 357.47 161.72 355.31 167.08
  C 354.15 169.95 352.51 172.56 351.41 175.39
  C 349.96 179.10 348.23 182.50 346.41 185.94
  Q 346.10 186.53 346.72 186.76
  Q 360.78 191.99 375.76 197.40
  Q 378.66 198.45 379.66 201.02
  Q 379.84 201.49 379.61 201.94
  Q 378.80 203.54 377.42 205.04
  Q 373.60 209.19 368.70 213.43
  Q 360.98 220.13 354.44 227.11
  A 0.49 0.49 0.0 0 0 354.53 227.85
  Q 367.01 236.07 379.46 245.06
  Q 380.65 245.92 381.01 247.50
  Q 382.10 252.18 377.61 254.22
  C 372.52 256.54 367.85 259.61 362.85 262.05
  Q 356.89 264.96 350.69 268.79
  A 0.74 0.74 0.0 0 0 350.50 269.88
  Q 355.71 276.37 361.66 282.23
  C 365.13 285.64 368.04 289.64 371.57 293.04
  Q 373.42 294.81 373.17 298.11
  A 1.70 1.70 0.0 0 1 371.64 299.67
  Q 366.50 300.16 361.51 299.69
  Q 347.81 298.40 332.71 296.79
  Q 331.37 296.65 331.13 297.97
  Q 330.85 299.43 330.86 300.97
  Q 330.95 311.81 331.04 323.25
  Q 331.05 325.27 329.86 326.38
  C 326.87 329.16 324.12 329.89 320.39 327.79
  C 311.13 322.58 302.20 317.24 292.83 312.27
  C 289.88 310.71 289.91 303.94 295.00 305.05
  Q 298.26 305.77 301.34 307.59
  Q 311.50 313.61 321.92 319.71
  Q 322.88 320.28 322.90 319.16
  Z
  M 318.04 116.41
  L 318.02 152.75
  A 1.25 1.24 -89.8 0 0 319.25 154.00
  Q 322.67 154.03 326.70 153.44
  C 330.37 152.91 333.97 153.16 337.62 152.48
  Q 340.48 151.94 343.39 151.97
  C 347.22 152.01 350.84 150.95 354.71 150.96
  Q 356.32 150.97 356.21 149.37
  L 356.19 149.04
  A 1.11 1.09 0.6 0 0 355.18 148.02
  Q 352.49 147.80 349.78 148.35
  C 346.47 149.02 343.15 148.73 339.97 149.20
  Q 334.74 149.98 329.34 150.08
  C 326.89 150.13 324.60 150.98 322.12 151.05
  A 1.05 1.04 89.2 0 1 321.05 150.00
  L 321.01 114.01
  A 0.97 0.97 0.0 0 0 320.25 113.06
  L 317.27 112.38
  Q 316.81 112.28 316.36 112.46
  L 287.52 123.98
  A 1.00 0.99 -26.0 0 1 286.29 123.56
  Q 285.33 121.90 284.62 120.10
  Q 279.04 105.94 273.39 91.98
  Q 272.57 89.94 270.62 90.44
  Q 270.19 90.55 269.83 90.30
  Q 269.24 89.89 268.55 90.00
  Q 267.79 90.13 267.08 90.72
  Q 256.72 99.36 246.47 108.13
  C 243.63 110.56 240.54 112.77 237.89 115.56
  A 1.27 1.27 0.0 0 1 236.10 115.61
  Q 231.15 110.96 227.33 106.36
  C 223.70 101.98 220.30 98.68 216.69 95.11
  C 215.46 93.89 214.69 92.20 213.26 91.23
  A 1.88 1.88 0.0 0 0 210.58 91.83
  Q 209.43 93.76 208.68 95.76
  Q 203.37 109.98 198.31 123.40
  A 1.90 1.87 -64.4 0 0 199.10 125.68
  Q 199.30 125.80 199.51 125.69
  Q 201.16 124.85 201.75 123.18
  Q 206.37 110.28 212.15 95.42
  Q 212.34 94.93 212.73 95.27
  Q 216.65 98.67 219.80 102.59
  Q 222.93 106.48 225.68 109.21
  C 228.27 111.77 231.41 114.39 233.23 117.41
  C 234.28 119.16 237.32 119.71 238.62 118.62
  Q 253.36 106.23 268.73 93.40
  Q 270.10 92.26 270.76 93.92
  L 283.90 126.92
  A 1.91 1.90 -22.0 0 0 286.39 127.97
  L 316.66 115.49
  Q 318.04 114.92 318.04 116.41
  Z
  M 371.80 202.28
  A 0.27 0.27 0.0 0 1 371.88 202.72
  Q 361.45 212.96 351.13 223.29
  C 350.05 224.37 348.72 225.06 347.60 226.06
  A 2.04 2.03 50.0 0 0 347.36 228.86
  Q 348.64 230.45 350.13 231.41
  Q 359.95 237.76 370.58 245.49
  Q 372.23 246.69 373.92 247.54
  A 0.54 0.54 0.0 0 1 373.94 248.49
  Q 372.27 249.44 370.52 250.40
  Q 355.31 258.79 344.99 264.73
  Q 343.49 265.60 342.27 267.18
  A 1.40 1.39 -51.1 0 0 342.47 269.10
  Q 346.60 272.63 349.58 276.59
  C 352.09 279.91 355.15 282.28 357.56 285.45
  Q 360.34 289.11 363.76 292.30
  A 0.37 0.36 63.0 0 1 363.56 292.93
  Q 360.41 293.30 357.25 292.74
  C 349.89 291.43 342.53 292.49 335.14 291.36
  Q 331.29 290.78 327.16 291.03
  A 1.32 1.32 0.0 0 0 325.92 292.40
  Q 326.29 301.18 325.49 309.28
  C 325.00 314.29 324.98 318.56 324.98 323.18
  A 0.83 0.83 0.0 0 1 323.74 323.90
  L 294.88 307.58
  A 0.24 0.17 -10.9 0 0 294.81 307.55
  Q 292.75 307.02 292.46 307.83
  Q 292.03 309.03 293.11 309.71
  C 303.18 316.00 314.03 321.49 324.47 327.74
  A 1.86 1.86 0.0 0 0 327.07 327.01
  C 327.82 325.59 328.11 323.99 328.02 322.28
  Q 327.64 315.15 328.35 309.89
  C 329.08 304.38 329.10 300.16 328.99 295.17
  A 1.16 1.16 0.0 0 1 330.08 293.98
  C 334.92 293.68 339.14 295.20 344.02 295.04
  Q 352.20 294.77 360.64 295.81
  Q 364.35 296.26 368.39 295.82
  A 0.88 0.87 -10.5 0 0 369.15 294.73
  C 368.97 294.07 368.68 293.30 368.19 292.82
  C 365.46 290.08 362.77 287.38 360.40 284.27
  C 358.03 281.16 355.06 278.75 352.70 275.67
  Q 350.07 272.22 346.14 268.72
  A 0.80 0.79 -38.4 0 1 346.29 267.43
  L 376.60 250.63
  A 2.69 2.53 59.9 0 0 377.46 246.97
  Q 376.85 245.95 375.17 244.85
  Q 362.40 236.47 351.54 228.62
  Q 350.53 227.89 351.41 227.00
  Q 358.81 219.59 366.35 212.20
  C 369.67 208.93 374.09 206.83 375.88 202.26
  Q 376.08 201.76 375.78 201.31
  Q 374.81 199.83 373.12 199.19
  Q 358.61 193.61 344.66 187.61
  A 1.50 1.50 0.0 0 1 343.89 185.62
  Q 351.08 169.69 358.49 152.84
  Q 358.77 152.20 358.71 151.55
  Q 358.61 150.41 357.49 150.33
  A 1.49 1.48 -76.2 0 0 356.03 151.22
  L 340.58 185.84
  A 3.30 3.29 22.4 0 0 342.42 190.26
  Q 357.32 195.93 371.80 202.28
  Z"
/>
<path fill="#d0c79f" d="
  M 318.04 116.41
  Q 318.04 114.92 316.66 115.49
  L 286.39 127.97
  A 1.91 1.90 -22.0 0 1 283.90 126.92
  L 270.76 93.92
  Q 270.10 92.26 268.73 93.40
  Q 253.36 106.23 238.62 118.62
  C 237.32 119.71 234.28 119.16 233.23 117.41
  C 231.41 114.39 228.27 111.77 225.68 109.21
  Q 222.93 106.48 219.80 102.59
  Q 216.65 98.67 212.73 95.27
  Q 212.34 94.93 212.15 95.42
  Q 206.37 110.28 201.75 123.18
  Q 201.16 124.85 199.51 125.69
  Q 199.30 125.80 199.10 125.68
  A 1.90 1.87 -64.4 0 1 198.31 123.40
  Q 203.37 109.98 208.68 95.76
  Q 209.43 93.76 210.58 91.83
  A 1.88 1.88 0.0 0 1 213.26 91.23
  C 214.69 92.20 215.46 93.89 216.69 95.11
  C 220.30 98.68 223.70 101.98 227.33 106.36
  Q 231.15 110.96 236.10 115.61
  A 1.27 1.27 0.0 0 0 237.89 115.56
  C 240.54 112.77 243.63 110.56 246.47 108.13
  Q 256.72 99.36 267.08 90.72
  Q 267.79 90.13 268.55 90.00
  Q 269.24 89.89 269.83 90.30
  Q 270.19 90.55 270.62 90.44
  Q 272.57 89.94 273.39 91.98
  Q 279.04 105.94 284.62 120.10
  Q 285.33 121.90 286.29 123.56
  A 1.00 0.99 -26.0 0 0 287.52 123.98
  L 316.36 112.46
  Q 316.81 112.28 317.27 112.38
  L 320.25 113.06
  A 0.97 0.97 0.0 0 1 321.01 114.01
  L 321.05 150.00
  A 1.05 1.04 89.2 0 0 322.12 151.05
  C 324.60 150.98 326.89 150.13 329.34 150.08
  Q 334.74 149.98 339.97 149.20
  C 343.15 148.73 346.47 149.02 349.78 148.35
  Q 352.49 147.80 355.18 148.02
  A 1.11 1.09 0.6 0 1 356.19 149.04
  L 356.21 149.37
  Q 356.32 150.97 354.71 150.96
  C 350.84 150.95 347.22 152.01 343.39 151.97
  Q 340.48 151.94 337.62 152.48
  C 333.97 153.16 330.37 152.91 326.70 153.44
  Q 322.67 154.03 319.25 154.00
  A 1.25 1.24 -89.8 0 1 318.02 152.75
  L 318.04 116.41
  Z"
/>
<path fill="#d0c79f" d="
  M 169.19 178.93
  Q 169.77 178.31 170.76 178.30
  Q 181.53 178.13 192.25 178.26
  A 2.29 2.28 -67.2 0 0 193.89 177.59
  Q 196.35 175.14 199.03 172.34
  Q 200.58 170.71 201.15 168.59
  Q 201.71 166.53 201.34 164.22
  Q 200.68 160.16 198.11 156.90
  Q 194.18 151.92 189.26 147.91
  Q 180.80 141.02 172.71 134.57
  Q 171.69 133.76 170.72 133.61
  Q 169.77 133.46 168.86 133.05
  Q 168.26 132.78 167.60 132.89
  Q 165.18 133.28 163.07 132.13
  A 2.35 2.23 58.8 0 0 162.08 131.86
  L 140.73 131.28
  Q 152.36 130.77 159.26 131.02
  Q 164.53 131.22 171.75 132.78
  Q 177.12 133.94 181.42 137.31
  Q 183.73 139.12 186.00 140.71
  Q 188.38 142.39 190.51 144.20
  Q 192.89 146.21 194.44 147.29
  C 196.35 148.61 198.13 149.70 199.88 151.30
  Q 204.38 155.42 207.17 160.20
  Q 209.42 164.04 208.20 168.60
  Q 206.82 173.79 201.33 178.43
  Q 200.07 179.49 198.55 179.50
  Q 186.72 179.55 173.08 179.51
  C 171.70 179.50 170.54 179.16 169.19 178.93
  Z"
/>
<path fill="#000000" d="
  M 140.73 131.28
  L 162.08 131.86
  A 2.35 2.23 58.8 0 1 163.07 132.13
  Q 165.18 133.28 167.60 132.89
  Q 168.26 132.78 168.86 133.05
  Q 169.77 133.46 170.72 133.61
  Q 171.69 133.76 172.71 134.57
  Q 180.80 141.02 189.26 147.91
  Q 194.18 151.92 198.11 156.90
  Q 200.68 160.16 201.34 164.22
  Q 201.71 166.53 201.15 168.59
  Q 200.58 170.71 199.03 172.34
  Q 196.35 175.14 193.89 177.59
  A 2.29 2.28 -67.2 0 1 192.25 178.26
  Q 181.53 178.13 170.76 178.30
  Q 169.77 178.31 169.19 178.93
  C 164.91 178.47 161.65 171.45 160.31 167.95
  Q 158.23 162.51 155.44 156.68
  Q 151.40 152.74 147.26 151.37
  Q 141.75 149.55 134.57 152.08
  C 131.12 153.30 129.62 158.31 128.69 161.57
  Q 127.99 164.04 128.47 166.62
  Q 129.28 171.00 130.04 175.24
  Q 131.14 181.30 133.87 184.19
  Q 136.78 187.28 139.81 190.61
  C 141.47 192.43 141.01 194.28 139.42 196.00
  Q 136.99 198.63 135.15 201.43
  C 134.46 202.49 133.26 203.11 132.45 204.17
  C 129.34 208.24 126.41 211.54 122.04 214.26
  Q 117.56 217.06 112.56 222.07
  Q 109.93 224.71 106.54 232.40
  Q 104.80 236.90 103.17 241.44
  Q 102.78 242.53 103.02 243.56
  Q 103.60 245.98 103.77 248.80
  A 2.18 2.16 -72.9 0 0 104.62 250.42
  Q 106.75 252.05 108.75 254.18
  C 111.44 257.04 116.03 260.08 119.59 260.75
  C 122.97 261.38 126.74 261.86 130.27 261.84
  Q 141.61 261.81 153.58 261.74
  C 157.97 261.71 163.20 260.90 168.25 260.91
  Q 171.04 260.92 172.03 262.15
  Q 173.84 265.22 171.70 267.31
  Q 170.65 268.33 169.51 268.32
  C 167.44 268.30 165.48 268.44 163.45 268.90
  C 160.66 269.54 157.87 269.42 155.00 269.97
  Q 150.70 270.80 146.55 271.25
  C 141.04 271.85 135.97 274.22 130.56 274.23
  Q 120.69 274.25 109.77 274.29
  C 102.49 274.32 95.83 273.27 88.81 271.67
  Q 79.46 269.54 77.02 260.67
  C 76.28 257.97 74.80 255.47 74.80 252.61
  Q 74.80 245.81 75.08 238.86
  Q 75.11 238.29 75.39 237.80
  Q 75.95 236.80 75.87 235.66
  Q 75.83 235.13 76.13 234.69
  Q 78.54 231.19 80.16 227.51
  C 80.78 226.09 81.70 225.32 82.37 223.91
  Q 83.30 221.96 85.38 220.32
  Q 85.78 220.01 85.88 219.51
  C 86.45 216.90 89.36 214.59 91.20 212.71
  Q 92.96 210.90 95.13 209.65
  Q 97.37 208.35 98.33 206.09
  Q 98.52 205.62 98.97 205.38
  Q 100.11 204.76 100.95 203.65
  Q 101.27 203.22 101.77 203.04
  Q 102.99 202.60 104.17 202.09
  Q 104.25 202.06 104.30 201.99
  Q 104.49 201.75 104.18 201.75
  A 0.04 0.04 0.0 0 1 104.16 201.68
  Q 106.31 200.49 107.92 198.53
  Q 108.23 198.16 108.70 198.06
  Q 110.00 197.81 109.87 196.36
  Q 109.55 192.82 107.94 190.41
  Q 98.12 175.75 99.55 158.22
  C 100.05 152.04 103.87 149.34 108.38 145.94
  C 111.21 143.82 113.19 141.19 116.03 139.04
  C 118.51 137.16 121.43 137.16 124.06 135.45
  A 0.26 0.25 80.3 0 0 124.18 135.27
  Q 124.27 134.77 123.79 134.98
  Q 125.21 134.16 126.35 134.25
  Q 128.06 135.15 128.89 133.71
  Q 129.25 133.36 130.01 133.33
  Q 132.68 133.78 133.53 132.69
  L 140.73 131.28
  Z"
/>
<path fill="#d0c79f" d="
  M 133.53 132.69
  Q 132.68 133.78 130.01 133.33
  L 133.53 132.69
  Z"
/>
<path fill="#d0c79f" d="
  M 128.89 133.71
  Q 128.06 135.15 126.35 134.25
  L 128.89 133.71
  Z"
/>
<path fill="#d0c79f" d="
  M 123.79 134.98
  Q 124.27 134.77 124.18 135.27
  A 0.26 0.25 80.3 0 1 124.06 135.45
  C 121.43 137.16 118.51 137.16 116.03 139.04
  C 113.19 141.19 111.21 143.82 108.38 145.94
  C 103.87 149.34 100.05 152.04 99.55 158.22
  Q 98.12 175.75 107.94 190.41
  Q 109.55 192.82 109.87 196.36
  Q 110.00 197.81 108.70 198.06
  Q 108.23 198.16 107.92 198.53
  Q 106.31 200.49 104.16 201.68
  A 0.04 0.04 0.0 0 0 104.18 201.75
  Q 104.49 201.75 104.30 201.99
  Q 104.25 202.06 104.17 202.09
  Q 102.99 202.60 101.77 203.04
  Q 101.27 203.22 100.95 203.65
  Q 100.11 204.76 98.97 205.38
  Q 98.52 205.62 98.33 206.09
  Q 97.37 208.35 95.13 209.65
  Q 92.96 210.90 91.20 212.71
  C 89.36 214.59 86.45 216.90 85.88 219.51
  Q 85.78 220.01 85.38 220.32
  Q 83.30 221.96 82.37 223.91
  C 81.70 225.32 80.78 226.09 80.16 227.51
  Q 78.54 231.19 76.13 234.69
  Q 75.83 235.13 75.87 235.66
  Q 75.95 236.80 75.39 237.80
  Q 75.11 238.29 75.08 238.86
  Q 74.80 245.81 74.80 252.61
  C 74.80 255.47 76.28 257.97 77.02 260.67
  Q 79.46 269.54 88.81 271.67
  C 95.83 273.27 102.49 274.32 109.77 274.29
  Q 120.69 274.25 130.56 274.23
  C 135.97 274.22 141.04 271.85 146.55 271.25
  Q 150.70 270.80 155.00 269.97
  C 157.87 269.42 160.66 269.54 163.45 268.90
  C 165.48 268.44 167.44 268.30 169.51 268.32
  Q 170.65 268.33 171.70 267.31
  Q 173.84 265.22 172.03 262.15
  C 174.68 262.81 177.00 263.24 177.41 266.02
  C 178.25 271.78 171.70 270.09 168.72 270.76
  C 165.00 271.59 161.41 271.34 157.70 272.09
  Q 153.67 272.91 149.75 273.31
  Q 145.53 273.75 142.80 274.46
  C 139.70 275.27 136.96 276.27 133.73 276.34
  Q 106.98 276.90 98.19 276.25
  Q 91.62 275.76 81.20 272.85
  Q 78.30 272.04 76.60 270.33
  Q 72.44 266.14 71.39 260.65
  Q 71.30 260.17 70.99 259.80
  Q 69.52 258.07 69.52 256.75
  Q 69.52 249.00 69.43 241.24
  Q 69.41 239.23 72.00 235.31
  Q 74.00 232.30 75.46 229.09
  C 76.24 227.38 77.52 226.35 78.20 224.67
  Q 78.39 224.22 78.75 223.90
  Q 81.08 221.82 82.86 219.38
  Q 87.74 212.70 94.60 208.69
  Q 95.16 208.36 95.48 207.81
  Q 97.14 204.91 99.82 203.51
  C 102.86 201.93 104.70 199.71 107.53 197.94
  Q 107.98 197.67 107.88 197.15
  Q 107.09 192.74 103.89 189.45
  Q 102.79 188.33 102.54 186.73
  Q 102.45 186.17 102.06 185.75
  Q 100.98 184.58 100.26 182.66
  Q 96.74 173.32 96.58 169.25
  Q 96.35 163.21 96.54 157.03
  Q 96.59 155.40 97.55 154.22
  C 99.09 152.31 99.88 150.24 102.00 148.77
  Q 106.99 145.31 110.88 141.65
  Q 112.02 140.58 113.44 139.68
  C 114.76 138.84 115.76 137.86 117.29 137.36
  Q 120.60 136.28 123.79 134.98
  Z"
/>
<path fill="#d0c79f" d="
  M 371.80 202.28
  Q 357.32 195.93 342.42 190.26
  A 3.30 3.29 22.4 0 1 340.58 185.84
  L 356.03 151.22
  A 1.49 1.48 -76.2 0 1 357.49 150.33
  Q 358.61 150.41 358.71 151.55
  Q 358.77 152.20 358.49 152.84
  Q 351.08 169.69 343.89 185.62
  A 1.50 1.50 0.0 0 0 344.66 187.61
  Q 358.61 193.61 373.12 199.19
  Q 374.81 199.83 375.78 201.31
  Q 376.08 201.76 375.88 202.26
  C 374.09 206.83 369.67 208.93 366.35 212.20
  Q 358.81 219.59 351.41 227.00
  Q 350.53 227.89 351.54 228.62
  Q 362.40 236.47 375.17 244.85
  Q 376.85 245.95 377.46 246.97
  A 2.69 2.53 59.9 0 1 376.60 250.63
  L 346.29 267.43
  A 0.80 0.79 -38.4 0 0 346.14 268.72
  Q 350.07 272.22 352.70 275.67
  C 355.06 278.75 358.03 281.16 360.40 284.27
  C 362.77 287.38 365.46 290.08 368.19 292.82
  C 368.68 293.30 368.97 294.07 369.15 294.73
  A 0.88 0.87 -10.5 0 1 368.39 295.82
  Q 364.35 296.26 360.64 295.81
  Q 352.20 294.77 344.02 295.04
  C 339.14 295.20 334.92 293.68 330.08 293.98
  A 1.16 1.16 0.0 0 0 328.99 295.17
  C 329.10 300.16 329.08 304.38 328.35 309.89
  Q 327.64 315.15 328.02 322.28
  C 328.11 323.99 327.82 325.59 327.07 327.01
  A 1.86 1.86 0.0 0 1 324.47 327.74
  C 314.03 321.49 303.18 316.00 293.11 309.71
  Q 292.03 309.03 292.46 307.83
  Q 292.75 307.02 294.81 307.55
  A 0.24 0.17 -10.9 0 1 294.88 307.58
  L 323.74 323.90
  A 0.83 0.83 0.0 0 0 324.98 323.18
  C 324.98 318.56 325.00 314.29 325.49 309.28
  Q 326.29 301.18 325.92 292.40
  A 1.32 1.32 0.0 0 1 327.16 291.03
  Q 331.29 290.78 335.14 291.36
  C 342.53 292.49 349.89 291.43 357.25 292.74
  Q 360.41 293.30 363.56 292.93
  A 0.37 0.36 63.0 0 0 363.76 292.30
  Q 360.34 289.11 357.56 285.45
  C 355.15 282.28 352.09 279.91 349.58 276.59
  Q 346.60 272.63 342.47 269.10
  A 1.40 1.39 -51.1 0 1 342.27 267.18
  Q 343.49 265.60 344.99 264.73
  Q 355.31 258.79 370.52 250.40
  Q 372.27 249.44 373.94 248.49
  A 0.54 0.54 0.0 0 0 373.92 247.54
  Q 372.23 246.69 370.58 245.49
  Q 359.95 237.76 350.13 231.41
  Q 348.64 230.45 347.36 228.86
  A 2.04 2.03 50.0 0 1 347.60 226.06
  C 348.72 225.06 350.05 224.37 351.13 223.29
  Q 361.45 212.96 371.88 202.72
  A 0.27 0.27 0.0 0 0 371.80 202.28
  Z"
/>
<path fill="#d0c79f" d="
  M 155.44 156.68
  Q 150.64 153.19 147.28 152.17
  Q 142.36 150.67 135.67 152.94
  C 132.24 154.11 130.75 158.62 129.63 161.69
  Q 128.79 163.99 129.23 166.66
  Q 130.59 174.71 132.31 179.85
  Q 133.35 182.99 135.99 185.30
  Q 138.41 187.42 140.84 190.11
  C 142.98 192.48 143.35 196.17 140.59 198.21
  Q 138.48 199.77 137.20 202.12
  Q 136.65 203.14 135.77 203.77
  Q 131.34 206.96 127.73 211.86
  Q 126.80 213.12 125.62 213.84
  Q 116.52 219.41 113.27 222.78
  Q 111.24 224.89 106.54 232.40
  Q 109.93 224.71 112.56 222.07
  Q 117.56 217.06 122.04 214.26
  C 126.41 211.54 129.34 208.24 132.45 204.17
  C 133.26 203.11 134.46 202.49 135.15 201.43
  Q 136.99 198.63 139.42 196.00
  C 141.01 194.28 141.47 192.43 139.81 190.61
  Q 136.78 187.28 133.87 184.19
  Q 131.14 181.30 130.04 175.24
  Q 129.28 171.00 128.47 166.62
  Q 127.99 164.04 128.69 161.57
  C 129.62 158.31 131.12 153.30 134.57 152.08
  Q 141.75 149.55 147.26 151.37
  Q 151.40 152.74 155.44 156.68
  Z"
/>
<path fill="#000000" d="
  M 309.85 217.89
  Q 311.08 203.29 304.15 191.31
  Q 293.96 173.71 274.68 167.95
  Q 264.65 164.96 254.99 166.35
  Q 239.12 168.65 227.25 179.42
  C 224.57 181.85 222.25 185.27 219.77 188.23
  Q 217.15 191.35 215.63 196.41
  L 213.79 195.32
  Q 213.35 195.06 213.31 194.55
  Q 213.22 193.23 214.12 191.85
  C 218.40 185.26 222.88 178.80 229.27 174.17
  Q 240.18 166.27 253.10 164.16
  Q 256.13 163.67 262.65 163.81
  Q 268.02 163.93 272.38 165.07
  C 283.64 167.99 294.60 174.35 301.52 183.87
  Q 305.90 189.90 308.08 194.31
  C 311.19 200.60 313.67 209.54 312.90 217.07
  Q 312.85 217.58 312.38 217.77
  Q 311.17 218.27 309.85 217.89
  Z"
/>
<path fill="#d0c79f" d="
  M 309.85 217.89
  Q 308.45 218.14 307.22 217.91
  C 306.98 214.22 307.19 210.69 306.54 207.06
  Q 305.18 199.47 300.99 191.86
  Q 299.49 189.13 297.55 186.90
  Q 295.44 184.48 293.47 182.44
  Q 290.73 179.62 286.59 176.72
  C 277.73 170.52 265.11 167.95 254.46 169.58
  Q 229.22 173.42 217.90 198.04
  L 215.63 196.41
  Q 217.15 191.35 219.77 188.23
  C 222.25 185.27 224.57 181.85 227.25 179.42
  Q 239.12 168.65 254.99 166.35
  Q 264.65 164.96 274.68 167.95
  Q 293.96 173.71 304.15 191.31
  Q 311.08 203.29 309.85 217.89
  Z"
/>
<path fill="#000000" d="
  M 307.22 217.91
  Q 306.40 218.01 305.62 217.72
  Q 305.14 217.54 305.13 217.02
  C 305.11 201.17 297.08 186.96 283.68 178.18
  C 274.37 172.08 262.27 170.59 251.40 172.43
  Q 248.96 172.84 244.83 174.40
  C 237.34 177.22 230.36 183.08 225.63 189.18
  Q 222.73 192.91 219.77 198.26
  Q 219.51 198.74 218.98 198.57
  Q 218.25 198.34 217.90 198.04
  Q 229.22 173.42 254.46 169.58
  C 265.11 167.95 277.73 170.52 286.59 176.72
  Q 290.73 179.62 293.47 182.44
  Q 295.44 184.48 297.55 186.90
  Q 299.49 189.13 300.99 191.86
  Q 305.18 199.47 306.54 207.06
  C 307.19 210.69 306.98 214.22 307.22 217.91
  Z"
/>
<path fill="#d0c79f" d="
  M 189.05 332.93
  L 191.45 325.49
  Q 191.63 324.94 192.20 324.81
  C 193.56 324.49 195.20 324.54 196.45 325.32
  Q 197.71 326.11 198.72 325.10
  C 201.21 322.58 203.50 320.01 206.52 317.92
  Q 215.13 311.97 222.56 305.84
  Q 226.75 302.38 231.60 299.48
  Q 236.56 296.51 241.47 293.73
  C 243.37 292.66 245.60 292.05 247.69 291.29
  Q 249.63 290.59 251.92 288.60
  C 255.54 285.45 261.00 282.41 265.93 280.79
  Q 267.99 280.12 269.93 278.28
  Q 273.40 274.99 277.23 271.53
  Q 279.17 269.79 286.17 260.30
  C 291.10 253.62 290.98 245.27 290.15 237.35
  C 288.94 225.66 278.87 218.57 270.55 212.01
  Q 267.55 209.65 264.70 209.10
  C 257.46 207.68 249.87 207.62 242.39 209.02
  Q 238.31 209.78 234.25 210.66
  Q 187.55 220.83 140.75 230.53
  C 137.50 231.20 136.75 236.20 135.66 237.91
  Q 131.41 244.60 130.07 251.94
  Q 127.78 252.13 125.20 253.22
  Q 123.86 253.78 121.47 252.05
  Q 121.01 251.71 120.96 251.15
  Q 120.70 248.49 121.82 246.30
  Q 126.04 237.97 129.61 230.16
  Q 129.80 229.73 130.21 229.50
  Q 132.14 228.41 134.04 228.01
  Q 190.56 216.21 246.85 204.18
  Q 256.18 202.18 268.57 203.90
  Q 270.76 204.20 273.34 205.40
  Q 275.53 206.42 277.46 207.76
  Q 284.06 212.34 289.13 216.62
  C 290.63 217.88 292.23 219.63 293.28 221.41
  C 295.31 224.88 297.96 227.89 298.74 231.95
  Q 300.87 243.15 299.05 253.19
  Q 298.32 257.23 295.56 261.18
  Q 290.10 268.99 284.81 274.79
  C 281.32 278.62 276.47 281.80 271.73 284.22
  Q 265.48 287.41 259.06 291.61
  C 256.94 293.00 256.12 295.10 253.63 296.08
  Q 250.53 297.31 247.34 298.29
  C 245.20 298.96 243.16 300.17 241.28 301.34
  Q 236.21 304.49 231.02 307.46
  Q 228.77 308.76 226.81 310.61
  Q 224.96 312.35 222.78 313.92
  Q 220.40 315.63 218.17 317.46
  Q 215.19 319.92 206.64 325.83
  Q 204.50 327.31 202.76 328.99
  C 200.31 331.37 197.26 336.34 193.15 333.80
  Q 192.73 333.54 192.24 333.55
  Q 190.73 333.56 189.05 332.93
  Z"
/>
<path fill="#000000" d="
  M 189.05 332.93
  Q 188.08 336.29 186.96 339.54
  Q 186.58 340.62 186.20 343.01
  Q 185.85 345.11 184.84 346.37
  Q 172.34 354.07 164.52 359.28
  Q 161.51 361.28 158.27 360.36
  Q 157.77 360.22 157.64 359.72
  Q 157.18 357.94 157.62 356.26
  Q 159.12 350.49 161.07 344.57
  C 163.72 336.50 165.92 328.11 168.52 319.93
  C 171.33 311.07 174.02 302.01 176.04 293.31
  Q 177.10 288.73 178.41 285.28
  C 179.46 282.49 179.91 279.63 180.45 276.72
  C 180.70 275.39 181.26 274.41 182.15 273.40
  Q 183.00 272.44 183.44 270.64
  Q 184.87 264.81 187.19 259.30
  A 0.40 0.39 33.1 0 1 187.82 259.17
  Q 188.56 259.84 188.73 259.69
  Q 188.73 259.69 188.73 259.68
  L 188.74 259.68
  Q 188.91 259.50 188.73 259.33
  Q 187.54 258.20 186.36 256.99
  A 0.92 0.91 -56.1 0 1 186.17 256.00
  C 187.87 251.83 191.49 249.90 195.78 249.09
  C 197.71 248.72 199.55 248.00 201.38 247.34
  Q 203.47 246.57 205.51 246.34
  C 208.22 246.04 210.51 244.58 213.26 244.65
  Q 216.43 244.74 219.07 243.68
  C 221.80 242.59 224.62 242.87 227.45 242.80
  A 3.51 3.51 0.0 0 1 231.05 246.32
  L 231.03 251.44
  Q 231.03 252.00 230.68 252.45
  Q 227.54 256.50 223.19 258.63
  C 219.45 260.45 217.48 263.43 213.19 264.46
  Q 211.38 264.90 210.01 266.00
  Q 207.50 268.01 208.75 269.63
  L 198.08 306.34
  Q 197.15 309.56 198.83 306.66
  Q 201.15 302.67 205.22 298.30
  Q 206.50 296.93 208.05 296.16
  C 209.69 295.35 210.91 294.17 212.66 293.46
  Q 219.77 290.59 226.90 285.52
  C 231.41 282.31 236.70 280.41 240.91 276.78
  C 242.74 275.20 245.10 274.85 246.76 272.94
  Q 250.55 268.55 253.94 264.44
  Q 255.07 263.07 255.84 261.34
  C 256.56 259.69 257.48 258.66 257.47 256.70
  Q 257.46 253.46 257.54 250.57
  C 257.63 247.48 256.99 245.92 254.89 244.02
  Q 254.01 243.22 253.44 242.23
  Q 252.34 240.30 250.52 238.66
  Q 249.74 237.96 248.64 237.65
  Q 247.32 237.28 246.13 236.70
  Q 243.55 235.47 240.91 235.27
  C 236.76 234.96 233.49 233.76 229.16 234.77
  C 223.19 236.16 217.21 236.39 211.37 237.60
  Q 205.53 238.81 198.23 239.96
  Q 193.94 240.63 190.20 241.56
  C 188.60 241.96 186.94 241.72 185.72 242.59
  Q 185.29 242.89 184.77 242.80
  C 183.13 242.53 182.04 243.30 180.55 243.59
  Q 157.14 248.18 133.60 252.55
  Q 132.71 252.71 131.85 252.49
  Q 131.03 252.27 130.07 251.94
  Q 131.41 244.60 135.66 237.91
  C 136.75 236.20 137.50 231.20 140.75 230.53
  Q 187.55 220.83 234.25 210.66
  Q 238.31 209.78 242.39 209.02
  C 249.87 207.62 257.46 207.68 264.70 209.10
  Q 267.55 209.65 270.55 212.01
  C 278.87 218.57 288.94 225.66 290.15 237.35
  C 290.98 245.27 291.10 253.62 286.17 260.30
  Q 279.17 269.79 277.23 271.53
  Q 273.40 274.99 269.93 278.28
  Q 267.99 280.12 265.93 280.79
  C 261.00 282.41 255.54 285.45 251.92 288.60
  Q 249.63 290.59 247.69 291.29
  C 245.60 292.05 243.37 292.66 241.47 293.73
  Q 236.56 296.51 231.60 299.48
  Q 226.75 302.38 222.56 305.84
  Q 215.13 311.97 206.52 317.92
  C 203.50 320.01 201.21 322.58 198.72 325.10
  Q 197.71 326.11 196.45 325.32
  C 195.20 324.54 193.56 324.49 192.20 324.81
  Q 191.63 324.94 191.45 325.49
  L 189.05 332.93
  Z"
/>
<path fill="#d0c79f" d="
  M 208.75 269.63
  Q 207.50 268.01 210.01 266.00
  Q 211.38 264.90 213.19 264.46
  C 217.48 263.43 219.45 260.45 223.19 258.63
  Q 227.54 256.50 230.68 252.45
  Q 231.03 252.00 231.03 251.44
  L 231.05 246.32
  A 3.51 3.51 0.0 0 0 227.45 242.80
  C 224.62 242.87 221.80 242.59 219.07 243.68
  Q 216.43 244.74 213.26 244.65
  C 210.51 244.58 208.22 246.04 205.51 246.34
  Q 203.47 246.57 201.38 247.34
  C 199.55 248.00 197.71 248.72 195.78 249.09
  C 191.49 249.90 187.87 251.83 186.17 256.00
  A 0.92 0.91 -56.1 0 0 186.36 256.99
  Q 187.54 258.20 188.73 259.33
  Q 188.91 259.50 188.74 259.68
  L 188.73 259.68
  Q 188.73 259.69 188.73 259.69
  Q 188.56 259.84 187.82 259.17
  A 0.40 0.39 33.1 0 0 187.19 259.30
  Q 184.87 264.81 183.44 270.64
  Q 183.00 272.44 182.15 273.40
  C 181.26 274.41 180.70 275.39 180.45 276.72
  C 179.91 279.63 179.46 282.49 178.41 285.28
  Q 177.10 288.73 176.04 293.31
  C 174.02 302.01 171.33 311.07 168.52 319.93
  C 165.92 328.11 163.72 336.50 161.07 344.57
  Q 159.12 350.49 157.62 356.26
  Q 157.18 357.94 157.64 359.72
  Q 157.77 360.22 158.27 360.36
  Q 161.51 361.28 164.52 359.28
  Q 172.34 354.07 184.84 346.37
  Q 183.43 349.52 182.93 354.39
  C 182.71 356.49 180.74 357.57 179.05 358.65
  Q 168.38 365.44 157.84 372.07
  Q 155.59 373.49 152.10 372.67
  A 1.08 1.06 -3.5 0 1 151.33 372.00
  Q 150.67 370.29 151.12 368.62
  Q 153.06 361.44 155.33 354.03
  Q 166.40 317.71 176.61 284.59
  Q 176.96 283.47 177.07 282.42
  Q 177.12 281.93 177.36 281.50
  Q 178.06 280.25 178.08 278.82
  A 0.94 0.94 0.0 0 1 178.52 278.04
  Q 178.70 277.93 178.81 277.77
  A 1.31 1.31 0.0 0 0 179.00 276.64
  Q 178.71 275.59 179.51 275.05
  A 1.34 1.33 66.0 0 0 180.05 273.63
  Q 179.58 271.81 180.70 270.79
  Q 181.22 270.33 181.01 269.66
  Q 180.67 268.54 181.58 267.98
  A 0.93 0.92 71.6 0 0 182.01 267.11
  Q 181.93 266.31 181.75 265.57
  Q 181.54 264.72 182.38 265.00
  Q 182.53 265.06 182.69 264.98
  Q 183.01 264.84 183.00 264.50
  L 183.00 262.97
  Q 183.00 262.34 183.51 261.96
  Q 184.19 261.46 184.10 260.49
  Q 184.03 259.67 183.57 259.03
  C 180.10 254.20 188.03 250.10 191.56 249.20
  Q 196.45 247.96 201.18 246.32
  C 204.02 245.33 206.82 245.36 209.65 244.19
  C 212.61 242.95 215.58 244.10 218.47 242.89
  Q 222.31 241.28 226.89 241.42
  C 230.11 241.52 233.36 241.80 233.49 245.95
  Q 233.62 249.90 233.31 252.77
  Q 233.24 253.42 232.81 253.89
  Q 229.04 258.00 225.30 260.05
  Q 224.40 260.54 223.38 260.72
  A 1.55 1.50 -73.1 0 0 222.53 261.19
  Q 219.14 264.86 215.99 265.79
  Q 211.28 267.18 208.75 269.63
  Z"
/>
<path fill="#000000" d="
  M 414.7371 334.4278
  A 22.41 21.35 90.8 0 1 393.7021 311.7219
  A 22.41 21.35 90.8 0 1 415.3629 289.6122
  A 22.41 21.35 90.8 0 1 436.3979 312.3181
  A 22.41 21.35 90.8 0 1 414.7371 334.4278
  Z
  M 416.0749 332.8233
  A 20.85 20.03 87.1 0 0 435.0243 310.9866
  A 20.85 20.03 87.1 0 0 413.9651 291.1767
  A 20.85 20.03 87.1 0 0 395.0157 313.0134
  A 20.85 20.03 87.1 0 0 416.0749 332.8233
  Z"
/>
<path fill="#d0c79f" d="
  M 416.0749 332.8233
  A 20.85 20.03 87.1 0 1 395.0157 313.0134
  A 20.85 20.03 87.1 0 1 413.9651 291.1767
  A 20.85 20.03 87.1 0 1 435.0243 310.9866
  A 20.85 20.03 87.1 0 1 416.0749 332.8233
  Z
  M 414.9685 330.0600
  A 18.02 16.92 90.1 0 0 431.9200 312.0695
  A 18.02 16.92 90.1 0 0 415.0315 294.0200
  A 18.02 16.92 90.1 0 0 398.0800 312.0105
  A 18.02 16.92 90.1 0 0 414.9685 330.0600
  Z"
/>
<ellipse fill="#000000" cx="0.00" cy="0.00" transform="translate(415.00,312.04) rotate(90.1)" rx="18.02" ry="16.92"/>
<path fill="#d0c79f" d="
  M 16.70 378.04
  Q 17.48 379.31 18.98 379.34
  A 2.05 2.05 0.0 0 1 20.99 381.42
  Q 20.92 387.48 21.03 394.07
  C 21.06 395.79 19.83 397.03 18.06 396.82
  Q 17.55 396.76 17.20 397.13
  Q 16.90 397.44 16.74 397.97
  L 15.23 397.91
  Q 15.04 397.91 15.04 397.72
  L 15.05 397.38
  Q 15.05 397.04 15.40 397.04
  C 17.14 397.06 19.04 396.03 19.03 394.09
  Q 18.97 388.04 19.02 381.80
  C 19.04 380.01 17.26 379.00 15.66 379.00
  Q 15.23 379.00 15.03 378.63
  Q 14.96 378.51 15.00 378.37
  Q 15.09 378.11 15.36 378.06
  Q 16.03 377.93 16.70 378.04
  Z"
/>
<path fill="#000000" d="
  M 16.70 378.04
  L 39.26 378.08
  Q 39.19 378.30 39.13 378.53
  L 38.89 385.30
  Q 38.87 385.88 38.31 385.73
  Q 37.79 385.59 37.16 384.69
  Q 35.47 378.86 30.49 379.34
  Q 28.39 378.85 26.77 379.15
  Q 26.27 379.24 26.27 379.76
  L 26.26 387.82
  Q 30.86 388.00 31.12 382.18
  Q 31.32 382.44 31.37 382.80
  A 0.04 0.04 0.0 0 0 31.45 382.80
  Q 31.50 382.34 31.94 382.02
  A 0.67 0.67 0.0 0 1 33.00 382.57
  L 33.00 393.54
  Q 33.01 394.13 32.42 394.24
  Q 31.86 394.35 31.20 393.75
  Q 30.75 390.13 27.73 389.30
  Q 26.89 389.07 26.67 389.45
  L 26.40 389.55
  Q 26.29 389.59 26.27 389.71
  Q 25.07 399.19 29.43 396.65
  Q 35.84 397.09 37.58 391.18
  Q 37.96 390.13 38.85 390.23
  Q 39.38 390.30 39.39 390.82
  L 39.56 397.29
  Q 39.90 397.00 39.63 397.73
  L 16.74 397.97
  Q 16.90 397.44 17.20 397.13
  Q 17.55 396.76 18.06 396.82
  C 19.83 397.03 21.06 395.79 21.03 394.07
  Q 20.92 387.48 20.99 381.42
  A 2.05 2.05 0.0 0 0 18.98 379.34
  Q 17.48 379.31 16.70 378.04
  Z"
/>
<path fill="#d0c79f" d="
  M 41.03 378.02
  Q 41.49 379.07 42.50 379.11
  Q 45.67 379.24 45.71 382.50
  Q 45.77 388.23 45.74 394.02
  Q 45.72 397.38 41.49 396.95
  Q 44.05 396.00 44.05 393.01
  Q 44.03 387.50 43.79 382.01
  Q 43.70 379.83 42.28 379.44
  Q 40.89 379.05 39.13 378.53
  Q 39.19 378.30 39.26 378.08
  L 41.03 378.02
  Z"
/>
<path fill="#000000" d="
  M 41.03 378.02
  L 55.75 378.06
  Q 55.97 378.06 55.98 378.28
  L 56.00 378.72
  Q 56.02 379.19 55.57 379.09
  Q 52.99 378.47 51.44 380.10
  A 1.59 1.57 -23.4 0 0 51.00 381.19
  L 51.00 396.34
  Q 51.00 396.97 51.63 396.95
  L 55.29 396.79
  Q 61.47 396.41 62.62 389.02
  Q 64.48 388.85 64.47 389.50
  Q 64.40 393.39 64.56 397.26
  Q 64.91 397.05 64.36 397.73
  L 40.94 397.97
  Q 41.42 397.40 41.49 396.95
  Q 45.72 397.38 45.74 394.02
  Q 45.77 388.23 45.71 382.50
  Q 45.67 379.24 42.50 379.11
  Q 41.49 379.07 41.03 378.02
  Z"
/>
<path fill="#d0c79f" d="
  M 65.72 378.10
  Q 68.56 379.18 69.89 380.43
  Q 70.25 380.78 70.25 381.29
  Q 70.25 386.93 70.27 394.11
  C 70.28 396.40 68.23 397.16 66.17 396.95
  Q 68.46 396.21 68.46 394.76
  Q 68.46 388.24 68.47 381.74
  Q 68.48 379.58 65.06 378.98
  Q 64.11 378.82 64.52 377.94
  Q 64.64 377.69 65.72 378.10
  Z"
/>
<path fill="#000000" d="
  M 65.72 378.10
  L 87.61 378.04
  Q 88.24 378.03 88.24 378.67
  L 88.25 385.23
  Q 88.25 385.76 87.72 385.75
  Q 87.17 385.74 86.55 385.25
  Q 85.09 379.03 79.97 379.35
  Q 77.80 378.77 76.02 379.16
  Q 75.52 379.27 75.52 379.79
  L 75.60 387.78
  Q 80.07 387.87 80.44 382.21
  Q 81.36 381.88 81.85 382.07
  Q 82.28 382.24 82.27 382.70
  Q 82.22 388.41 82.26 393.37
  Q 82.26 393.83 81.87 394.07
  Q 81.36 394.38 80.44 394.23
  Q 80.13 389.83 76.49 389.12
  Q 75.95 389.01 75.98 389.47
  Q 75.84 389.46 75.69 389.50
  Q 75.50 389.56 75.50 389.75
  L 75.44 396.26
  Q 75.44 396.78 75.95 396.88
  Q 77.43 397.19 79.05 396.65
  Q 85.35 397.00 87.12 390.51
  Q 87.56 390.35 88.13 390.34
  Q 88.73 390.33 88.73 390.93
  L 88.74 397.53
  A 0.45 0.44 -90.0 0 1 88.30 397.98
  L 65.96 397.98
  Q 66.58 397.17 66.17 396.95
  C 68.23 397.16 70.28 396.40 70.27 394.11
  Q 70.25 386.93 70.25 381.29
  Q 70.25 380.78 69.89 380.43
  Q 68.56 379.18 65.72 378.10
  Z"
/>
<path fill="#d0c79f" d="
  M 99.98 378.14
  Q 93.74 380.88 92.34 385.85
  C 90.65 391.83 95.15 396.46 100.73 397.85
  C 93.07 397.79 87.47 389.68 92.14 382.91
  Q 94.93 378.85 99.98 378.14
  Z"
/>
<path fill="#000000" d="
  M 99.98 378.14
  Q 105.20 377.12 108.93 380.15
  Q 109.59 382.15 111.51 378.06
  Q 112.18 377.90 112.71 378.04
  A 0.70 0.69 -82.3 0 1 113.22 378.71
  Q 113.25 382.49 113.54 386.25
  Q 113.62 387.29 112.10 386.96
  Q 109.97 380.10 103.43 379.27
  Q 101.16 378.73 99.77 380.53
  C 97.42 383.57 97.53 390.89 98.66 393.74
  Q 100.23 397.70 104.68 396.65
  C 107.95 397.30 111.20 393.78 112.16 391.08
  Q 112.86 391.04 113.27 391.19
  Q 113.80 391.37 113.54 391.87
  Q 109.78 399.24 100.73 397.85
  C 95.15 396.46 90.65 391.83 92.34 385.85
  Q 93.74 380.88 99.98 378.14
  Z"
/>
<path fill="#d0c79f" d="
  M 111.51 378.06
  Q 109.59 382.15 108.93 380.15
  Q 109.86 377.47 111.51 378.06
  Z"
/>
<path fill="#d0c79f" d="
  M 116.49 378.02
  L 116.32 387.84
  Q 115.88 388.60 115.22 388.37
  A 0.81 0.79 9.9 0 1 114.68 387.62
  L 114.71 378.67
  Q 114.71 378.17 115.19 378.05
  Q 115.81 377.88 116.49 378.02
  Z"
/>
<path fill="#000000" d="
  M 116.49 378.02
  L 140.18 378.03
  A 0.69 0.69 0.0 0 1 140.87 378.76
  Q 140.60 382.91 140.79 387.55
  Q 140.81 388.17 140.20 388.16
  L 139.04 388.14
  Q 139.03 381.12 132.88 379.12
  Q 132.07 378.86 132.03 379.40
  L 131.64 379.35
  Q 131.24 379.31 131.24 379.71
  Q 131.25 386.78 131.24 393.75
  C 131.23 398.07 135.12 396.84 137.74 397.04
  Q 137.96 397.06 137.98 397.28
  L 138.00 397.70
  Q 138.01 397.97 137.74 397.97
  L 119.51 397.97
  Q 119.78 397.50 119.47 397.02
  Q 121.24 397.16 122.51 396.65
  Q 125.99 397.45 125.99 394.49
  Q 125.99 387.33 125.99 380.12
  Q 125.99 379.26 125.54 379.09
  Q 125.07 378.91 124.16 379.00
  Q 118.87 381.30 118.11 387.54
  Q 118.04 388.04 117.56 388.21
  Q 116.61 388.52 116.32 387.84
  L 116.49 378.02
  Z"
/>
<path fill="#d0c79f" d="
  M 142.95 378.02
  L 143.23 379.07
  Q 142.38 379.05 141.67 378.71
  Q 141.06 378.43 141.66 378.13
  Q 142.11 377.91 142.95 378.02
  Z"
/>
<path fill="#000000" d="
  M 142.95 378.02
  Q 157.73 377.94 161.75 378.02
  C 164.98 378.09 169.54 380.92 168.25 384.77
  C 167.23 387.80 161.95 389.02 159.25 389.03
  Q 156.91 389.04 159.06 389.97
  Q 161.00 390.80 163.06 391.27
  Q 163.53 391.38 163.82 391.77
  C 165.66 394.27 167.39 397.35 170.98 397.06
  Q 171.16 397.05 171.17 397.23
  L 171.18 397.52
  Q 171.19 397.90 170.80 397.92
  L 162.31 398.20
  Q 159.25 392.65 155.92 389.33
  Q 155.30 388.71 154.49 389.03
  L 153.02 389.06
  Q 152.48 389.07 152.48 389.61
  L 152.48 394.47
  A 2.49 2.49 0.0 0 0 154.72 396.95
  L 156.04 397.09
  Q 156.52 397.14 156.57 397.62
  Q 156.60 397.82 156.34 397.92
  Q 156.24 397.96 156.14 397.96
  L 142.98 397.96
  L 143.01 397.00
  Q 143.13 396.74 143.75 396.71
  C 146.38 397.24 147.19 395.38 147.22 393.08
  Q 147.29 387.81 147.19 382.49
  Q 147.11 378.80 143.23 379.07
  L 142.95 378.02
  Z
  M 157.79 387.71
  C 161.16 388.23 163.07 386.08 162.75 382.84
  Q 162.38 379.13 158.41 379.33
  Q 155.70 378.74 152.98 379.15
  Q 152.46 379.23 152.47 379.75
  L 152.48 387.29
  Q 152.49 387.88 153.08 387.94
  Q 155.53 388.21 157.79 387.71
  Z"
/>
<path fill="#d0c79f" d="
  M 172.72 378.03
  Q 173.12 378.66 173.06 378.98
  Q 172.28 379.09 171.79 378.67
  Q 171.44 378.37 171.83 378.12
  Q 172.12 377.92 172.72 378.03
  Z"
/>
<path fill="#000000" d="
  M 172.72 378.03
  Q 179.37 377.95 185.98 378.04
  Q 186.23 378.04 186.43 378.18
  Q 186.55 378.26 186.56 378.42
  Q 186.60 378.90 186.12 378.93
  L 184.76 379.03
  A 2.72 2.72 0.0 0 0 182.24 381.74
  L 182.24 394.06
  A 2.92 2.91 3.5 0 0 184.81 396.95
  L 186.06 397.10
  Q 186.33 397.13 186.46 397.36
  Q 186.62 397.64 186.50 397.78
  Q 186.34 397.96 186.10 397.97
  Q 179.34 398.05 172.18 397.96
  Q 171.47 397.96 171.91 397.39
  Q 172.47 396.68 174.59 396.81
  Q 176.79 396.85 177.06 393.24
  Q 177.54 386.64 176.86 381.49
  Q 176.71 380.35 176.18 379.80
  Q 175.32 378.92 174.17 379.39
  Q 173.58 379.34 173.06 378.98
  Q 173.12 378.66 172.72 378.03
  Z"
/>
<path fill="#000000" d="
  M 206.88 380.37
  Q 207.92 381.39 209.05 378.03
  L 210.31 378.03
  Q 210.90 378.03 210.92 378.61
  L 211.26 386.08
  Q 211.29 386.60 210.82 386.84
  L 209.48 387.53
  Q 208.80 380.76 201.39 379.27
  Q 197.40 378.50 196.22 383.24
  C 195.38 386.64 194.98 393.35 198.12 395.81
  Q 200.30 397.52 203.43 396.45
  Q 208.08 395.98 209.94 391.01
  Q 210.69 390.91 211.19 391.17
  Q 211.56 391.36 211.38 391.75
  Q 209.22 396.24 204.49 397.71
  Q 201.90 398.51 197.63 397.80
  Q 191.91 395.64 190.27 391.49
  C 188.49 387.01 190.53 383.03 194.16 380.33
  Q 195.57 379.28 197.08 378.15
  Q 201.37 377.55 203.51 378.25
  Q 204.38 378.53 206.88 380.37
  Z"
/>
<path fill="#d0c79f" d="
  M 209.05 378.03
  Q 207.92 381.39 206.88 380.37
  Q 207.83 377.64 209.05 378.03
  Z"
/>
<path fill="#000000" d="
  M 216.39 396.72
  Q 218.27 396.75 218.57 395.01
  Q 219.51 389.72 218.55 381.35
  Q 218.45 380.52 217.97 380.00
  Q 217.16 379.14 216.56 379.32
  Q 214.59 379.27 213.91 378.93
  Q 212.22 378.07 214.11 378.04
  Q 220.53 377.94 227.78 378.03
  Q 227.94 378.03 228.01 378.17
  L 228.16 378.54
  A 0.38 0.38 0.0 0 1 227.74 379.06
  C 225.26 378.60 223.93 380.26 223.97 382.54
  Q 224.06 388.05 223.96 393.27
  Q 223.89 397.06 227.83 397.19
  Q 228.12 397.19 228.08 397.48
  L 228.02 397.94
  Q 228.02 398.00 227.96 398.00
  Q 220.67 397.99 213.71 397.99
  Q 213.38 397.99 213.30 397.68
  A 0.40 0.39 77.9 0 1 213.61 397.19
  L 216.39 396.72
  Z"
/>
<path fill="#000000" d="
  M 232.41 396.42
  Q 233.97 396.60 234.17 394.41
  Q 234.46 391.15 234.19 382.61
  Q 234.15 381.43 233.84 380.72
  Q 233.25 379.41 232.27 379.42
  L 229.28 378.92
  Q 228.91 378.86 228.94 378.49
  L 228.96 378.22
  Q 228.97 378.03 229.16 378.03
  Q 237.07 377.91 245.28 378.06
  Q 251.83 378.18 255.13 383.49
  C 259.81 391.01 253.54 397.94 245.75 397.98
  Q 236.92 398.01 229.37 397.98
  Q 228.95 397.98 228.89 397.56
  Q 228.87 397.38 228.95 397.22
  A 0.33 0.31 7.7 0 1 229.17 397.06
  L 232.41 396.42
  Z
  M 245.55 396.53
  Q 251.80 394.90 250.57 385.87
  Q 249.76 379.94 244.79 379.35
  L 240.23 378.99
  A 0.69 0.69 0.0 0 0 239.48 379.68
  L 239.46 396.54
  A 0.41 0.40 88.0 0 0 239.89 396.95
  L 245.55 396.53
  Z"
/>
<path fill="#d0c79f" d="
  M 270.48 377.74
  Q 268.07 384.32 263.82 392.75
  Q 262.32 395.75 259.64 396.84
  Q 259.20 397.02 258.97 397.28
  Q 258.71 397.58 258.48 397.95
  Q 257.96 397.96 257.80 397.86
  A 0.44 0.44 0.0 0 1 257.90 397.07
  Q 261.01 396.03 262.34 393.16
  Q 265.97 385.32 270.48 377.74
  Z"
/>
<path fill="#000000" d="
  M 270.48 377.74
  Q 272.22 378.07 272.50 378.64
  Q 276.54 386.87 280.53 395.27
  A 2.81 2.78 85.1 0 0 282.25 396.74
  L 284.69 397.47
  Q 284.68 397.68 284.67 397.89
  L 271.71 397.95
  L 271.95 397.05
  Q 272.98 397.05 274.15 396.60
  Q 274.74 396.94 275.12 396.38
  Q 275.34 396.05 275.24 395.56
  Q 274.68 392.75 272.68 392.08
  L 266.72 392.12
  A 1.78 1.78 0.0 0 0 264.97 393.63
  Q 264.51 396.57 268.20 397.10
  Q 268.31 397.11 268.31 397.22
  L 268.28 397.51
  Q 268.24 398.03 267.72 398.03
  L 258.48 397.95
  Q 258.71 397.58 258.97 397.28
  Q 259.20 397.02 259.64 396.84
  Q 262.32 395.75 263.82 392.75
  Q 268.07 384.32 270.48 377.74
  Z
  M 269.45 384.11
  L 266.81 390.17
  Q 266.60 390.64 267.10 390.76
  Q 269.21 391.27 272.86 390.89
  L 270.15 383.97
  Q 270.03 383.67 269.72 383.56
  Q 269.49 383.48 269.37 383.64
  Q 269.30 383.74 269.31 383.87
  Q 269.40 384.81 269.45 384.11
  Z"
/>
<path fill="#000000" d="
  M 285.71 397.97
  L 285.95 397.05
  Q 286.90 396.84 287.71 396.35
  Q 288.57 396.80 289.23 395.99
  Q 290.00 395.05 289.98 393.25
  Q 289.91 387.64 289.80 382.05
  Q 289.78 381.13 289.48 380.54
  Q 288.95 379.47 288.24 379.47
  L 284.83 378.80
  Q 284.50 378.74 284.54 378.40
  Q 284.56 378.24 284.68 378.12
  Q 284.74 378.05 284.83 378.05
  Q 293.24 377.97 301.19 378.04
  C 309.34 378.11 316.24 387.20 310.11 394.45
  C 307.74 397.25 304.15 397.97 300.27 397.99
  Q 292.99 398.03 285.71 397.97
  Z
  M 301.23 396.32
  C 303.90 397.14 306.10 392.83 306.39 390.77
  Q 307.74 381.23 300.91 379.37
  L 295.80 379.16
  Q 295.24 379.13 295.24 379.69
  L 295.24 396.27
  Q 295.24 396.78 295.75 396.86
  Q 298.43 397.28 301.23 396.32
  Z"
/>
<path fill="#000000" d="
  M 327.33 395.77
  Q 328.37 395.19 328.47 394.24
  Q 329.14 388.23 327.93 380.60
  Q 325.73 379.11 323.96 378.80
  Q 323.72 378.76 323.58 378.55
  Q 323.44 378.35 323.54 378.21
  Q 323.67 378.03 323.89 378.03
  Q 331.76 377.97 339.59 378.01
  Q 341.06 378.02 342.40 378.57
  C 343.68 379.10 344.80 379.07 345.98 379.95
  C 350.97 383.65 346.31 388.75 341.88 388.94
  Q 338.62 389.08 334.62 389.00
  Q 333.77 388.98 333.79 389.84
  C 333.86 393.11 332.67 397.54 337.93 397.16
  A 0.34 0.34 0.0 0 1 338.30 397.48
  L 338.32 397.75
  Q 338.33 397.90 338.17 397.91
  Q 330.99 398.10 323.85 397.95
  Q 323.53 397.95 323.54 397.63
  L 323.55 397.34
  Q 323.55 397.24 323.65 397.22
  Q 325.68 396.98 327.33 395.77
  Z
  M 333.78 379.77
  L 333.78 387.23
  A 0.74 0.74 0.0 0 0 334.52 387.97
  L 336.72 387.97
  A 4.98 3.89 0.0 0 0 341.70 384.08
  L 341.70 382.92
  A 4.98 3.89 0.0 0 0 336.72 379.03
  L 334.52 379.03
  A 0.74 0.74 0.0 0 0 333.78 379.77
  Z"
/>
<path fill="#000000" d="
  M 353.75 395.79
  Q 354.52 395.21 354.67 393.00
  Q 355.11 386.13 353.99 380.64
  Q 352.27 379.20 350.42 378.80
  Q 350.04 378.72 350.05 378.32
  Q 350.05 378.13 350.38 378.05
  Q 350.49 378.02 350.60 378.02
  Q 357.06 377.98 363.68 378.00
  Q 364.00 378.00 364.00 378.33
  L 363.99 378.68
  Q 363.99 379.01 363.66 379.00
  Q 359.79 378.85 359.79 382.46
  Q 359.79 388.03 359.81 393.44
  Q 359.82 397.03 363.40 397.14
  Q 363.80 397.15 363.81 397.55
  L 363.82 397.81
  Q 363.82 397.99 363.64 397.99
  L 350.70 398.00
  Q 350.24 398.00 350.20 397.55
  Q 350.18 397.42 350.28 397.30
  Q 350.32 397.25 350.44 397.20
  L 353.75 395.79
  Z"
/>
<path fill="#000000" d="
  M 374.49 395.85
  Q 374.84 395.99 375.26 395.31
  Q 375.49 394.96 375.49 394.46
  Q 375.63 387.01 375.32 379.47
  Q 374.38 378.68 373.48 379.06
  Q 368.54 381.14 367.72 387.49
  Q 367.60 388.41 366.68 388.49
  L 366.37 388.51
  Q 365.41 388.59 365.41 387.62
  L 365.41 378.67
  Q 365.41 378.00 366.08 378.00
  L 389.50 378.00
  Q 390.25 378.00 390.25 378.75
  L 390.24 387.85
  Q 390.24 388.43 389.65 388.47
  L 388.79 388.51
  Q 388.32 388.54 388.27 388.07
  Q 387.43 380.70 381.37 379.09
  Q 380.78 378.93 380.78 379.54
  Q 380.80 386.31 380.82 394.02
  C 380.83 397.98 385.04 396.84 387.44 397.14
  Q 387.51 397.15 387.51 397.22
  L 387.51 397.49
  Q 387.51 398.00 387.00 398.00
  L 368.59 397.99
  Q 368.30 397.99 368.30 397.70
  L 368.30 397.35
  A 0.39 0.39 0.0 0 1 368.77 396.96
  Q 371.96 397.58 374.49 395.85
  Z"
/>
<path fill="#000000" d="
  M 401.13 379.65
  A 0.81 0.80 -11.1 0 0 400.02 378.91
  Q 394.48 381.18 393.79 387.55
  Q 393.68 388.54 392.69 388.52
  L 392.34 388.51
  Q 391.69 388.50 391.69 387.84
  L 391.64 378.42
  A 0.42 0.42 0.0 0 1 392.06 378.00
  L 415.75 378.00
  Q 416.25 378.00 416.25 378.50
  L 416.24 388.01
  Q 416.24 388.51 415.74 388.52
  L 415.06 388.53
  A 0.67 0.67 0.0 0 1 414.38 387.93
  Q 413.65 380.57 407.33 379.04
  Q 406.88 378.93 406.88 379.39
  L 406.92 394.54
  A 2.43 2.42 -89.4 0 0 409.29 396.97
  L 413.53 397.07
  Q 413.72 397.07 413.71 397.26
  L 413.71 397.54
  A 0.47 0.47 0.0 0 1 413.24 398.00
  L 394.94 398.00
  Q 394.56 398.00 394.56 397.63
  L 394.56 397.34
  Q 394.56 397.06 394.84 397.04
  C 397.01 396.89 399.05 397.46 400.74 395.67
  Q 401.13 395.25 401.13 394.69
  L 401.13 379.65
  Z"
/>
<path fill="#000000" d="
  M 450.17 381.94
  Q 449.61 388.35 450.51 394.61
  C 450.90 397.33 453.62 396.95 455.55 397.29
  Q 455.63 397.31 455.63 397.39
  L 455.61 397.68
  Q 455.59 397.94 455.33 397.94
  L 430.19 398.01
  Q 430.06 398.01 430.06 397.89
  L 430.05 397.62
  Q 430.04 397.27 430.38 397.26
  Q 431.82 397.18 433.16 396.62
  A 0.93 0.92 -24.3 0 0 433.64 395.36
  L 432.36 392.70
  A 1.22 1.21 -12.0 0 0 431.30 392.02
  L 426.07 391.93
  Q 425.26 391.92 424.83 392.60
  L 423.79 394.26
  A 1.02 1.02 0.0 0 0 424.12 395.68
  L 426.47 397.10
  Q 427.95 397.99 426.22 397.99
  L 417.71 398.00
  Q 417.49 398.00 417.30 397.88
  Q 417.06 397.73 417.07 397.54
  Q 417.09 397.31 417.30 397.24
  Q 420.57 396.22 422.85 391.44
  Q 425.98 384.91 428.87 378.77
  A 1.54 1.54 0.0 0 1 431.66 378.78
  Q 435.38 386.87 439.06 394.54
  Q 440.11 396.72 442.87 397.36
  C 444.04 397.63 444.83 396.92 446.03 396.93
  A 2.18 2.18 0.0 0 0 448.24 394.75
  L 448.24 381.30
  Q 448.24 380.64 447.70 380.26
  Q 446.34 379.32 444.63 378.90
  Q 444.21 378.79 444.24 378.36
  Q 444.25 378.22 444.36 378.12
  Q 444.49 378.02 444.65 378.01
  Q 448.80 377.95 452.70 378.01
  Q 453.69 378.03 454.35 378.76
  L 465.29 390.77
  Q 465.88 391.42 465.93 390.54
  Q 466.14 386.67 465.95 383.34
  Q 465.76 379.80 461.25 378.87
  Q 461.19 378.86 461.19 378.80
  L 461.21 378.52
  Q 461.24 378.01 461.75 378.01
  Q 466.71 377.93 471.72 378.07
  Q 471.93 378.07 472.09 378.19
  Q 472.21 378.28 472.19 378.43
  Q 472.17 378.64 471.97 378.69
  Q 467.79 379.60 467.90 384.15
  Q 468.03 390.31 467.97 395.99
  Q 467.93 400.13 465.09 397.11
  L 450.68 381.77
  Q 450.22 381.28 450.17 381.94
  Z
  M 425.44 390.63
  A 0.31 0.31 0.0 0 0 425.72 391.07
  L 431.32 391.11
  A 0.31 0.31 0.0 0 0 431.60 390.68
  L 428.86 384.32
  A 0.31 0.31 0.0 0 0 428.29 384.32
  L 425.44 390.63
  Z"
/>
<path fill="#000000" d="
  M 489.15 395.46
  L 487.64 392.48
  A 1.18 1.17 -18.2 0 0 486.40 391.86
  Q 484.49 392.17 482.51 391.86
  Q 479.97 391.47 479.08 394.64
  A 1.03 1.02 -68.0 0 0 479.58 395.83
  L 482.20 397.25
  Q 483.55 397.98 482.02 397.99
  L 474.00 398.00
  Q 470.39 398.01 473.80 396.57
  Q 476.32 395.51 477.60 392.84
  Q 480.76 386.26 484.31 378.72
  A 1.47 1.47 0.0 0 1 486.98 378.73
  Q 490.82 387.08 494.62 394.92
  Q 495.66 397.06 498.41 397.19
  Q 498.52 397.20 498.54 397.31
  L 498.58 397.69
  Q 498.61 398.00 498.30 398.00
  L 485.44 398.00
  Q 485.24 397.99 485.24 397.80
  L 485.24 397.53
  A 0.28 0.27 -5.0 0 1 485.47 397.26
  L 488.48 396.78
  A 0.92 0.92 0.0 0 0 489.15 395.46
  Z
  M 480.81 390.60
  A 0.31 0.31 0.0 0 0 481.09 391.04
  L 486.70 391.03
  A 0.31 0.31 0.0 0 0 486.98 390.59
  L 484.17 384.23
  A 0.31 0.31 0.0 0 0 483.60 384.23
  L 480.81 390.60
  Z"
/>
<path fill="#d0c79f" d="
  M 197.08 378.15
  Q 195.57 379.28 194.16 380.33
  C 190.53 383.03 188.49 387.01 190.27 391.49
  Q 191.91 395.64 197.63 397.80
  C 191.59 396.94 186.90 391.49 188.88 385.23
  Q 190.48 380.15 197.08 378.15
  Z"
/>
<path fill="#d0c79f" d="
  M 122.51 396.65
  Q 124.11 396.09 124.17 395.00
  Q 124.44 390.41 124.16 379.00
  Q 125.07 378.91 125.54 379.09
  Q 125.99 379.26 125.99 380.12
  Q 125.99 387.33 125.99 394.49
  Q 125.99 397.45 122.51 396.65
  Z"
/>
<path fill="#d0c79f" d="
  M 139.04 388.14
  Q 138.27 388.53 137.86 388.36
  Q 137.53 388.23 137.45 387.49
  Q 136.82 381.89 132.03 379.40
  Q 132.07 378.86 132.88 379.12
  Q 139.03 381.12 139.04 388.14
  Z"
/>
<path fill="#d0c79f" d="
  M 143.23 379.07
  Q 147.11 378.80 147.19 382.49
  Q 147.29 387.81 147.22 393.08
  C 147.19 395.38 146.38 397.24 143.75 396.71
  Q 145.62 396.00 145.66 393.87
  Q 145.78 388.45 145.67 382.99
  Q 145.61 379.82 143.23 379.07
  Z"
/>
<path fill="#d0c79f" d="
  M 157.79 387.71
  C 162.30 386.90 162.64 380.87 158.41 379.33
  Q 162.38 379.13 162.75 382.84
  C 163.07 386.08 161.16 388.23 157.79 387.71
  Z"
/>
<path fill="#d0c79f" d="
  M 37.16 384.69
  Q 37.01 385.45 36.74 385.70
  A 0.82 0.82 0.0 0 1 35.38 385.25
  Q 34.59 381.04 30.49 379.34
  Q 35.47 378.86 37.16 384.69
  Z"
/>
<path fill="#d0c79f" d="
  M 86.55 385.25
  Q 86.54 385.60 86.24 385.80
  A 0.77 0.77 0.0 0 1 85.12 385.48
  C 83.83 382.66 83.26 380.54 79.97 379.35
  Q 85.09 379.03 86.55 385.25
  Z"
/>
<path fill="#d0c79f" d="
  M 112.10 386.96
  Q 111.49 387.06 111.06 386.98
  Q 110.55 386.89 110.38 386.39
  Q 108.76 381.42 103.43 379.27
  Q 109.97 380.10 112.10 386.96
  Z"
/>
<path fill="#d0c79f" d="
  M 174.59 396.81
  Q 177.24 389.53 175.49 380.75
  Q 175.35 380.06 174.17 379.39
  Q 175.32 378.92 176.18 379.80
  Q 176.71 380.35 176.86 381.49
  Q 177.54 386.64 177.06 393.24
  Q 176.79 396.85 174.59 396.81
  Z"
/>
<path fill="#d0c79f" d="
  M 209.48 387.53
  Q 206.18 381.05 201.39 379.27
  Q 208.80 380.76 209.48 387.53
  Z"
/>
<path fill="#d0c79f" d="
  M 216.39 396.72
  Q 219.33 388.61 216.56 379.32
  Q 217.16 379.14 217.97 380.00
  Q 218.45 380.52 218.55 381.35
  Q 219.51 389.72 218.57 395.01
  Q 218.27 396.75 216.39 396.72
  Z"
/>
<path fill="#d0c79f" d="
  M 232.41 396.42
  Q 234.57 387.79 232.27 379.42
  Q 233.25 379.41 233.84 380.72
  Q 234.15 381.43 234.19 382.61
  Q 234.46 391.15 234.17 394.41
  Q 233.97 396.60 232.41 396.42
  Z"
/>
<path fill="#d0c79f" d="
  M 245.55 396.53
  Q 248.86 394.82 249.55 390.23
  C 250.22 385.77 249.29 381.18 244.79 379.35
  Q 249.76 379.94 250.57 385.87
  Q 251.80 394.90 245.55 396.53
  Z"
/>
<path fill="#d0c79f" d="
  M 301.23 396.32
  C 304.96 395.26 305.86 390.09 305.39 386.77
  Q 304.63 381.39 300.91 379.37
  Q 307.74 381.23 306.39 390.77
  C 306.10 392.83 303.90 397.14 301.23 396.32
  Z"
/>
<path fill="#d0c79f" d="
  M 288.24 379.47
  Q 288.95 379.47 289.48 380.54
  Q 289.78 381.13 289.80 382.05
  Q 289.91 387.64 289.98 393.25
  Q 290.00 395.05 289.23 395.99
  Q 288.57 396.80 287.71 396.35
  Q 288.90 395.44 288.96 394.69
  Q 289.57 386.66 288.24 379.47
  Z"
/>
<path fill="#d0c79f" d="
  M 375.32 379.47
  Q 375.63 387.01 375.49 394.46
  Q 375.49 394.96 375.26 395.31
  Q 374.84 395.99 374.49 395.85
  L 375.32 379.47
  Z"
/>
<path fill="#d0c79f" d="
  M 327.93 380.60
  Q 329.14 388.23 328.47 394.24
  Q 328.37 395.19 327.33 395.77
  C 327.56 394.95 328.00 394.21 328.01 393.36
  Q 328.06 386.89 327.93 380.60
  Z"
/>
<path fill="#d0c79f" d="
  M 353.75 395.79
  Q 354.66 388.44 353.99 380.64
  Q 355.11 386.13 354.67 393.00
  Q 354.52 395.21 353.75 395.79
  Z"
/>
<path fill="#d0c79f" d="
  M 31.12 382.18
  Q 30.86 388.00 26.26 387.82
  Q 29.08 385.36 29.30 382.67
  Q 29.35 382.16 29.84 382.01
  Q 30.40 381.84 31.12 382.18
  Z"
/>
<path fill="#d0c79f" d="
  M 80.44 382.21
  Q 80.07 387.87 75.60 387.78
  Q 78.50 385.76 78.78 382.63
  Q 78.83 382.11 79.33 381.99
  Q 79.85 381.87 80.44 382.21
  Z"
/>
<path fill="#d0c79f" d="
  M 272.86 390.89
  Q 270.50 388.19 269.45 384.11
  Q 269.40 384.81 269.31 383.87
  Q 269.30 383.74 269.37 383.64
  Q 269.49 383.48 269.72 383.56
  Q 270.03 383.67 270.15 383.97
  L 272.86 390.89
  Z"
/>
<path fill="#d0c79f" d="
  M 62.62 389.02
  Q 61.47 396.41 55.29 396.79
  Q 58.83 395.14 59.36 393.33
  Q 60.60 389.13 62.62 389.02
  Z"
/>
<path fill="#d0c79f" d="
  M 80.44 394.23
  Q 79.01 394.86 78.67 393.52
  Q 77.92 390.55 75.98 389.47
  Q 75.95 389.01 76.49 389.12
  Q 80.13 389.83 80.44 394.23
  Z"
/>
<path fill="#d0c79f" d="
  M 162.31 398.20
  Q 157.85 394.91 154.49 389.03
  Q 155.30 388.71 155.92 389.33
  Q 159.25 392.65 162.31 398.20
  Z"
/>
<path fill="#d0c79f" d="
  M 31.20 393.75
  Q 30.81 394.68 29.94 394.30
  Q 29.47 394.09 29.33 393.61
  Q 28.61 391.07 26.67 389.45
  Q 26.89 389.07 27.73 389.30
  Q 30.75 390.13 31.20 393.75
  Z"
/>
<path fill="#d0c79f" d="
  M 87.12 390.51
  Q 85.35 397.00 79.05 396.65
  Q 83.85 395.73 85.37 390.62
  Q 85.67 389.62 87.12 390.51
  Z"
/>
<path fill="#d0c79f" d="
  M 37.58 391.18
  Q 35.84 397.09 29.43 396.65
  Q 34.14 395.71 35.52 391.58
  Q 35.76 390.84 36.11 390.50
  Q 37.22 389.39 37.58 391.18
  Z"
/>
<path fill="#d0c79f" d="
  M 112.16 391.08
  C 111.20 393.78 107.95 397.30 104.68 396.65
  Q 108.98 395.41 110.57 391.55
  Q 110.77 391.08 111.27 391.00
  Q 111.68 390.94 112.16 391.08
  Z"
/>
<path fill="#d0c79f" d="
  M 209.94 391.01
  Q 208.08 395.98 203.43 396.45
  Q 207.25 394.96 208.47 391.65
  Q 208.64 391.18 209.13 391.05
  Q 209.49 390.96 209.94 391.01
  Z"
/>
<path fill="#d0c79f" d="
  M 274.15 396.60
  Q 274.26 394.70 272.68 392.08
  Q 274.68 392.75 275.24 395.56
  Q 275.34 396.05 275.12 396.38
  Q 274.74 396.94 274.15 396.60
  Z"
/>
<path fill="#d0c79f" d="
  M 41.49 396.95
  Q 41.42 397.40 40.94 397.97
  Q 40.20 398.00 39.63 397.73
  Q 39.90 397.00 39.56 397.29
  L 41.49 396.95
  Z"
/>
<path fill="#d0c79f" d="
  M 66.17 396.95
  Q 66.58 397.17 65.96 397.98
  Q 65.10 398.04 64.36 397.73
  Q 64.91 397.05 64.56 397.26
  L 66.17 396.95
  Z"
/>
<path fill="#d0c79f" d="
  M 119.47 397.02
  Q 119.78 397.50 119.51 397.97
  Q 118.66 398.06 118.49 398.03
  Q 116.44 397.63 118.41 396.94
  Q 118.54 396.90 119.47 397.02
  Z"
/>
<path fill="#d0c79f" d="
  M 143.01 397.00
  L 142.98 397.96
  Q 141.85 398.13 141.49 397.75
  Q 141.12 397.37 141.62 397.19
  Q 142.26 396.96 143.01 397.00
  Z"
/>
<path fill="#d0c79f" d="
  M 271.95 397.05
  L 271.71 397.95
  Q 271.06 398.07 270.75 397.75
  Q 270.52 397.53 270.72 397.27
  Q 270.98 396.95 271.95 397.05
  Z"
/>
<path fill="#d0c79f" d="
  M 285.95 397.05
  L 285.71 397.97
  L 284.67 397.89
  Q 284.68 397.68 284.69 397.47
  Q 285.04 397.00 285.95 397.05
  Z"
/>
</svg>
